<svg width="24" height="24" viewBox="0 0 24 24" fill="none" xmlns="http://www.w3.org/2000/svg">
<path d="M7.76465 9.26525L7.75847 9.26525L7.76465 9.27148C7.76465 9.27148 7.76465 9.27149 7.76465 9.26525Z" fill="white"/>
<path d="M9.63219 7.46136C10.2665 7.46136 10.8655 7.46136 11.4998 7.46136C11.4998 6.84063 11.4998 6.24268 11.4998 5.65043C10.8773 5.65043 10.2547 5.65043 9.6087 5.65043C9.6087 6.25977 9.6087 6.84633 9.6087 7.44997C8.98028 7.44997 8.37536 7.44997 7.76456 7.44997C7.76456 8.0707 7.76456 8.66865 7.76456 9.2666C8.37536 9.2666 8.98615 9.2666 9.62631 9.2666C9.63219 8.66865 9.63219 8.07639 9.63219 7.46136Z" fill="white"/>
<path d="M13.38 21.9431C13.38 21.9601 13.3976 21.9772 13.4093 22C14.6427 22 15.876 22 17.127 22C17.127 21.3907 17.127 20.787 17.127 20.1891C15.8819 20.1891 14.6427 20.1891 13.3976 20.1891C13.3917 20.7756 13.3858 21.3565 13.38 21.9431Z" fill="white"/>
<path d="M9.63219 16.5444C9.63219 15.9293 9.63219 15.3428 9.63219 14.7334C8.9979 14.7334 8.38123 14.7334 7.76456 14.7334C7.76456 15.3371 7.76456 15.9407 7.76456 16.5615C8.3871 16.5615 8.99203 16.5615 9.62044 16.5615C9.62044 17.1708 9.62044 17.763 9.62044 18.3496C10.2665 18.3496 10.8831 18.3496 11.4998 18.3496C11.4998 17.7574 11.4998 17.1651 11.4998 16.5444C10.8714 16.5444 10.2606 16.5444 9.63219 16.5444Z" fill="white"/>
<path d="M11.5003 18.3441C11.4972 18.3441 11.4946 18.3466 11.4946 18.3498C11.4946 18.3529 11.4972 18.3555 11.5003 18.3555C11.5034 18.3555 11.5059 18.3529 11.5059 18.3498C11.5059 18.3466 11.5034 18.3441 11.5003 18.3441Z" fill="white"/>
<path d="M15.2466 7.44347C14.6182 7.44347 14.0074 7.44347 13.3907 7.44347C13.3907 8.06989 13.3907 8.66784 13.3907 9.27148C14.0015 9.27148 14.6123 9.27148 15.2584 9.27148C15.2584 8.66215 15.2584 8.06989 15.2584 7.46055C15.8985 7.46055 16.5034 7.46055 17.1201 7.46055C17.1201 6.84551 17.1201 6.24757 17.1201 5.65531C16.5034 5.65531 15.8809 5.65531 15.2466 5.65531C15.2466 6.24187 15.2466 6.82843 15.2466 7.44347Z" fill="white"/>
<path d="M17.127 1.99962C15.8642 1.99962 14.6309 1.99962 13.3976 1.99962C13.3976 2.61465 13.3976 3.2126 13.3976 3.81055C14.6427 3.81055 15.8819 3.81055 17.127 3.81055C17.127 3.2069 17.127 2.59757 17.127 1.99962Z" fill="white"/>
<path d="M13.3918 3.80502C13.3887 3.80502 13.3862 3.80757 13.3862 3.81071C13.3862 3.81386 13.3887 3.81641 13.3918 3.81641C13.3949 3.81641 13.3975 3.81386 13.3975 3.81071C13.3975 3.80757 13.3949 3.80502 13.3918 3.80502Z" fill="white"/>
<path d="M15.2417 16.5506C15.2417 17.1599 15.2417 17.7465 15.2417 18.3387C15.2946 18.3501 15.3239 18.3672 15.3592 18.3672C15.9465 18.3615 16.5396 18.3558 17.127 18.3444C17.127 17.7522 17.127 17.1542 17.127 16.5335C16.4985 16.5335 15.8877 16.5335 15.2535 16.5335C15.2535 15.9184 15.2535 15.3319 15.2535 14.7225C14.6192 14.7225 14.0084 14.7225 13.3976 14.7225C13.3976 15.3205 13.3976 15.9184 13.3976 16.5449C14.0025 16.5506 14.6133 16.5506 15.2417 16.5506Z" fill="white"/>
<path d="M19 20.1836C19 19.5629 19 18.9706 19 18.3556C18.3657 18.3556 17.749 18.3556 17.1324 18.3556C17.1324 18.9649 17.1324 19.5743 17.1324 20.1836C17.7549 20.1836 18.3775 20.1836 19 20.1836Z" fill="white"/>
<path d="M17.1256 20.1823C17.1256 20.1892 17.1256 20.1892 17.1256 20.1823C17.1326 20.1892 17.1326 20.1823 17.1256 20.1823Z" fill="white"/>
<path d="M17.1326 18.3555C17.1326 18.3485 17.1326 18.3485 17.1326 18.3555C17.1326 18.3485 17.1256 18.3485 17.1326 18.3555C17.1256 18.3485 17.1256 18.3485 17.1326 18.3555Z" fill="white"/>
<path d="M13.3913 20.1832L13.3913 20.1895L13.3975 20.1895L13.3975 20.1832C13.3913 20.1832 13.3913 20.1832 13.3913 20.1832Z" fill="white"/>
<path d="M11.5054 18.3556C11.5054 18.9592 11.5054 19.5629 11.5054 20.1836C12.1455 20.1836 12.7681 20.1836 13.3906 20.1836C13.3906 19.5856 13.3906 18.982 13.3906 18.3556C12.7387 18.3556 12.122 18.3556 11.5054 18.3556Z" fill="white"/>
<path d="M13.3906 14.7275C13.3906 14.1296 13.3906 13.5259 13.3906 12.8995C12.7387 12.8995 12.122 12.8995 11.5054 12.8995C11.5054 13.5032 11.5054 14.1011 11.5054 14.7275C12.1397 14.7275 12.7622 14.7275 13.3906 14.7275Z" fill="white"/>
<path d="M11.4997 12.8945C11.5066 12.8945 11.5066 12.8945 11.4997 12.8945C11.4997 12.8876 11.4997 12.8876 11.4997 12.8945Z" fill="white"/>
<path d="M7.76584 14.722C7.76272 14.722 7.7602 14.7246 7.7602 14.7277C7.7602 14.7309 7.76272 14.7334 7.76584 14.7334C7.76896 14.7334 7.77148 14.7309 7.77148 14.7277C7.77148 14.7246 7.76896 14.722 7.76584 14.722Z" fill="white"/>
<path d="M5.87367 12.8937C5.87367 13.4973 5.87367 14.101 5.87367 14.7217C6.51383 14.7217 7.13637 14.7217 7.75891 14.7217C7.75891 14.1237 7.75891 13.5258 7.75891 12.8937C7.11875 12.8937 6.49621 12.8937 5.87367 12.8937Z" fill="white"/>
<path d="M11.5054 11.1006C12.122 11.1006 12.7446 11.1006 13.3906 11.1006C13.3906 10.4685 13.3906 9.87052 13.3906 9.27257C12.7681 9.27257 12.1455 9.27257 11.5054 9.27257C11.5054 9.8933 11.5054 10.4969 11.5054 11.1006Z" fill="white"/>
<path d="M13.3918 9.26693C13.3887 9.26693 13.3862 9.26948 13.3862 9.27263C13.3862 9.27577 13.3887 9.27832 13.3918 9.27832C13.3949 9.27832 13.3975 9.27577 13.3975 9.27263C13.3975 9.26948 13.3949 9.26693 13.3918 9.26693Z" fill="white"/>
<path d="M7.75891 9.27257C7.13637 9.27257 6.51383 9.27257 5.87367 9.27257C5.87367 9.8933 5.87367 10.4969 5.87367 11.1006C6.49034 11.1006 7.11288 11.1006 7.75891 11.1006C7.75891 10.4742 7.75891 9.87621 7.75891 9.27257Z" fill="white"/>
<path d="M5.87421 11.1123L5.87421 11.1061L5.86803 11.1061C5.86803 11.1061 5.86803 11.1061 5.87421 11.1123Z" fill="white"/>
<path d="M7.75847 9.26525L7.75847 9.27148L7.76465 9.27148L7.75847 9.26525Z" fill="white"/>
<path d="M17.1269 3.80502C17.1238 3.80502 17.1213 3.80757 17.1213 3.81071C17.1213 3.81386 17.1238 3.81641 17.1269 3.81641C17.13 3.81641 17.1326 3.81386 17.1326 3.81071C17.1326 3.80757 17.13 3.80502 17.1269 3.80502Z" fill="white"/>
<path d="M19 5.64441C19 5.01229 19 4.42003 19 3.81639C18.3657 3.81639 17.749 3.81639 17.1324 3.81639C17.1324 4.42572 17.1324 5.03507 17.1324 5.64441C17.7549 5.64441 18.3775 5.64441 19 5.64441Z" fill="white"/>
<path d="M17.1256 5.64322C17.1326 5.65018 17.1256 5.65018 17.1256 5.64322C17.1326 5.64322 17.1326 5.64322 17.1256 5.64322Z" fill="white"/>
<path d="M13.3906 3.81651C12.7681 3.81651 12.1397 3.81651 11.5054 3.81651C11.5054 4.44293 11.5054 5.04089 11.5054 5.64453C12.122 5.64453 12.7446 5.64453 13.3906 5.64453C13.3906 5.01241 13.3906 4.41446 13.3906 3.81651Z" fill="white"/>
<path d="M11.5003 5.639C11.4972 5.639 11.4946 5.64155 11.4946 5.6447C11.4946 5.64784 11.4972 5.65039 11.5003 5.65039C11.5034 5.65039 11.5059 5.64784 11.5059 5.6447C11.5059 5.64155 11.5034 5.639 11.5003 5.639Z" fill="white"/>
<path d="M9.63219 12.8887C10.2547 12.8887 10.8773 12.8887 11.4998 12.8887C11.4998 12.2964 11.4998 11.6985 11.4998 11.1062C10.8831 11.1062 10.2665 11.1062 9.63219 11.1062C9.63219 11.6985 9.63219 12.285 9.63219 12.8887Z" fill="white"/>
<path d="M11.5003 11.1009C11.4972 11.1009 11.4946 11.1035 11.4946 11.1066C11.4946 11.1097 11.4972 11.1123 11.5003 11.1123C11.5034 11.1123 11.5059 11.1097 11.5059 11.1066C11.5059 11.1035 11.5034 11.1009 11.5003 11.1009Z" fill="white"/>
<path d="M5.87327 12.888C5.87015 12.888 5.86762 12.8906 5.86762 12.8937C5.86762 12.8969 5.87015 12.8994 5.87327 12.8994C5.87638 12.8994 5.87891 12.8969 5.87891 12.8937C5.87891 12.8906 5.87638 12.888 5.87327 12.888Z" fill="white"/>
<path d="M5.8681 12.8887C5.8681 12.2964 5.8681 11.7042 5.8681 11.1062C5.32191 11.1005 4.78159 11.0891 4.2354 11.0834C4.15905 11.0834 4.0827 11.0948 4.00048 11.0948C4.00048 11.7099 4.00048 12.2964 4.00048 12.8887C4.63476 12.8887 5.25143 12.8887 5.8681 12.8887Z" fill="white"/>
</svg>
