<svg width="25" height="35" viewBox="0 0 25 35" fill="none" xmlns="http://www.w3.org/2000/svg">
<path d="M16.2811 7.34912H8.03516V17.1894H16.2811V7.34912Z" fill="#D1E5F2"/>
<path d="M22.5983 24.5491C23.5351 18.7771 19.6154 13.3386 13.8434 12.4019C8.0714 11.4651 2.6329 15.3848 1.69614 21.1568C0.75939 26.9288 4.67911 32.3673 10.4511 33.3041C16.2231 34.2408 21.6616 30.3211 22.5983 24.5491Z" fill="#D1E5F2"/>
<path d="M20.0655 24.1378C20.7753 19.7646 17.8055 15.6442 13.4324 14.9344C9.05924 14.2247 4.93878 17.1945 4.22905 21.5676C3.51932 25.9407 6.48908 30.0612 10.8622 30.7709C15.2353 31.4806 19.3558 28.5109 20.0655 24.1378Z" fill="#B7CFE2"/>
<path d="M4.12415 22.8447C4.12415 27.279 7.7115 30.8664 12.1459 30.8664C16.5802 30.8664 20.1676 27.279 20.1676 22.8447C20.1676 22.2717 20.0928 21.6987 19.9932 21.1506H4.29853C4.17397 21.6987 4.12415 22.2717 4.12415 22.8447Z" fill="#AA3073"/>
<path d="M6.78955 22.8447C6.78955 25.8092 9.18112 28.2008 12.1457 28.2008C15.1102 28.2008 17.5018 25.8092 17.5018 22.8447C17.5018 22.2468 17.4021 21.6738 17.2277 21.1506H7.0885C6.8892 21.6738 6.78955 22.2468 6.78955 22.8447Z" fill="#D83A51"/>
<path d="M14.2134 7.34912H10.078V15.8193H14.2134V7.34912Z" fill="#B7CFE2"/>
<path d="M16.2811 7.34912H8.03516V11.5842H16.2811V7.34912Z" fill="#91A9BA"/>
<path d="M17.3524 5.85425H6.96399V10.1391H17.3524V5.85425Z" fill="#D1E5F2"/>
<path d="M15.2596 5.85425H12.1456V10.1391H15.2596V5.85425Z" fill="white"/>
<path d="M14.6618 5.85436H9.65447L8.58325 0H15.7081L14.6618 5.85436Z" fill="#E88503"/>
<path d="M12.1456 5.85436H13.8397L14.8361 0H12.1456V5.85436Z" fill="#F7C903"/>
<path d="M17.6264 19.5808C17.2029 20.1538 16.032 19.9794 14.9857 19.2321C13.9394 18.4598 13.4412 17.3886 13.8647 16.8156C14.2882 16.2426 15.4591 16.417 16.5054 17.1644C17.5268 17.9366 18.0499 19.0079 17.6264 19.5808Z" fill="#E7EEF2"/>
</svg>
