<svg width="35" height="35" viewBox="0 0 35 35" fill="none" xmlns="http://www.w3.org/2000/svg">
<path d="M31.1143 14.898C30.5868 14.898 30.1704 14.482 30.1704 13.9551V6.96601C30.1704 6.41133 29.9483 5.88437 29.5597 5.49609C29.171 5.10781 28.6435 4.88594 28.0883 4.88594C27.5331 4.88594 27.0056 5.10781 26.617 5.49609L24.6737 7.4375C24.3128 7.79804 23.7298 7.79804 23.3411 7.4375C22.9802 7.07695 22.9802 6.49453 23.3411 6.10625L25.2844 4.16484C26.034 3.41602 27.0334 3 28.0883 3C29.1432 3 30.1426 3.41602 30.8922 4.16484C31.6418 4.91367 32.0582 5.91211 32.0582 6.96601V13.9551C32.0582 14.482 31.6418 14.898 31.1143 14.898Z" fill="#CB5C31"/>
<g opacity="0.7">
<path opacity="0.5" d="M27.0318 4.88599C26.4766 4.88599 25.9491 5.10786 25.5604 5.49614L23.6171 7.43755C23.5894 7.46528 23.5339 7.52075 23.5061 7.54849C23.867 7.79809 24.3667 7.77036 24.6998 7.43755L26.6431 5.49614C26.893 5.24653 27.2261 5.05239 27.587 4.96919C27.3927 4.91372 27.2261 4.88599 27.0318 4.88599Z" fill="#CB5C31"/>
<path opacity="0.5" d="M30.8905 4.19268C30.141 3.44385 29.1693 3.02783 28.1144 3.02783C27.92 3.02783 27.7535 3.05557 27.5869 3.05557C28.4475 3.1665 29.2248 3.55478 29.8356 4.16494C30.5851 4.91377 31.0016 5.91221 31.0016 6.96611V13.9552C31.0016 14.2602 30.835 14.5376 30.6129 14.704C30.7517 14.8149 30.946 14.8704 31.1404 14.8704C31.6678 14.8704 32.0843 14.4544 32.0843 13.9274V6.96611C32.0565 5.91221 31.6401 4.9415 30.8905 4.19268Z" fill="#CB5C31"/>
</g>
<path d="M27.3658 9.07353L24.8395 11.5974L18.8708 5.66221L21.3971 3.13838C21.5082 3.02744 21.7025 3.02744 21.8413 3.13838L27.3658 8.65752C27.5046 8.76845 27.5046 8.96259 27.3658 9.07353Z" fill="#9262FF"/>
<path opacity="0.5" d="M22.0355 3.30479L19.2871 6.05049L18.8984 5.66221L21.4247 3.13838C21.5358 3.02744 21.7301 3.02744 21.8689 3.13838L22.0355 3.30479Z" fill="#9262FF"/>
<path opacity="0.5" d="M27.3656 9.07348L24.8394 11.5973L22.0077 8.76841L24.7561 6.02271L27.3656 8.62974C27.5044 8.76841 27.5044 8.96255 27.3656 9.07348Z" fill="#9262FF"/>
<path opacity="0.8" d="M20.3554 4.18494L18.8832 5.65576L24.8507 11.6175L26.323 10.1467L20.3554 4.18494Z" fill="#9262FF"/>
<path d="M23.3959 26.4358C18.0935 31.7331 9.54298 31.7885 4.18503 26.6022C4.12951 26.5467 4.07398 26.4913 4.01846 26.4358C-1.33949 21.0831 -1.33949 12.43 4.01846 7.10496C8.29372 2.83386 14.7066 1.9741 19.8425 4.55339L25.95 10.655C28.5318 15.7581 27.6712 22.1647 23.3959 26.4358Z" fill="#9262FF"/>
<path opacity="0.5" d="M5.0177 26.6024C4.96218 26.5469 4.90665 26.4914 4.85113 26.436C-0.506821 21.0832 -0.506821 12.4301 4.85113 7.10513C7.40518 4.52583 10.7643 3.22232 14.1234 3.11138C10.4867 3.00044 6.82219 4.33169 4.04605 7.10513C-1.3119 12.4579 -1.3119 21.111 4.04605 26.436C4.10157 26.4914 4.1571 26.5469 4.21262 26.6024C6.961 29.2649 10.5422 30.5407 14.1234 30.4575C10.8198 30.3465 7.54398 29.043 5.0177 26.6024Z" fill="#9262FF"/>
<path opacity="0.5" d="M23.3959 26.4359C18.0935 31.7331 9.54301 31.7886 4.18506 26.6023L23.0628 7.74292L25.95 10.6273C28.5318 15.7582 27.6712 22.1648 23.3959 26.4359Z" fill="#9262FF"/>
<path d="M32.5841 17.839C31.3348 16.3691 30.6963 16.3414 29.3915 17.7558C29.5858 15.8421 29.1417 15.3984 27.1984 15.4261C28.6697 14.1781 28.6975 13.5402 27.2816 12.2367C29.1972 12.4308 29.6414 11.9871 29.6136 10.0457C30.8629 11.5156 31.5014 11.5433 32.8062 10.1289C32.6118 12.0425 33.056 12.4863 34.9993 12.4585C33.528 13.7066 33.5002 14.3445 34.916 15.648C33.0005 15.4539 32.5563 15.9253 32.5841 17.839Z" fill="#FFB612"/>
<path d="M32.5841 17.839C31.3348 16.3691 30.6963 16.3414 29.3915 17.7558C29.5858 15.8421 29.1417 15.3984 27.1984 15.4261C28.6697 14.1781 28.6975 13.5402 27.2816 12.2367C29.1972 12.4308 29.6414 11.9871 29.6136 10.0457C30.8629 11.5156 31.5014 11.5433 32.8062 10.1289C32.6118 12.0425 33.056 12.4863 34.9993 12.4585C33.528 13.7066 33.5002 14.3445 34.916 15.648C33.0005 15.4539 32.5563 15.9253 32.5841 17.839Z" fill="#FFB612"/>
<path d="M31.8911 16.0076C31.2248 15.2311 30.8917 15.2033 30.2254 15.9521C30.3364 14.9537 30.0866 14.7041 29.0872 14.7318C29.8645 14.0662 29.8922 13.7334 29.1427 13.0678C30.1421 13.1787 30.3919 12.9291 30.3642 11.9307C31.0305 12.7072 31.3636 12.735 32.0299 11.9861C31.9188 12.9846 32.1687 13.2342 33.1681 13.2064C32.3908 13.8721 32.363 14.2049 33.1126 14.8705C32.1131 14.7596 31.8633 14.9814 31.8911 16.0076Z" fill="#FFB612"/>
<path d="M31.8911 16.0076C31.2248 15.2311 30.8917 15.2033 30.2254 15.9521C30.3364 14.9537 30.0866 14.7041 29.0872 14.7318C29.8645 14.0662 29.8922 13.7334 29.1427 13.0678C30.1421 13.1787 30.3919 12.9291 30.3642 11.9307C31.0305 12.7072 31.3636 12.735 32.0299 11.9861C31.9188 12.9846 32.1687 13.2342 33.1681 13.2064C32.3908 13.8721 32.363 14.2049 33.1126 14.8705C32.1131 14.7596 31.8633 14.9814 31.8911 16.0076Z" fill="#FFB612"/>
<path opacity="0.5" d="M10.2933 8.8484C11.5915 7.95023 12.1699 6.53818 11.5851 5.69449C11.0003 4.85081 9.47371 4.89498 8.17544 5.79315C6.87717 6.69132 6.2988 8.10338 6.88361 8.94706C7.46843 9.79075 8.99498 9.74658 10.2933 8.8484Z" fill="white"/>
</svg>
