<svg width="24" height="24" viewBox="0 0 24 24" fill="none" xmlns="http://www.w3.org/2000/svg">
<g filter="url(#filter0_d_10_264)">
<path d="M6.95338 5.99485C6.95338 4.89312 6.06839 4 4.97669 4C3.88499 4 3 4.89312 3 5.99485C3 7.09657 3.88499 7.9897 4.97669 7.9897C6.06839 7.9897 6.95338 7.09657 6.95338 5.99485Z" fill="white"/>
<path d="M6.95338 11.5005C6.95338 10.3987 6.06839 9.50562 4.97669 9.50562C3.88499 9.50562 3 10.3987 3 11.5005C3 12.6022 3.88499 13.4953 4.97669 13.4953C6.06839 13.4953 6.95338 12.6022 6.95338 11.5005Z" fill="white"/>
<path d="M6.95338 17.0053C6.95338 15.9036 6.06839 15.0105 4.97669 15.0105C3.88499 15.0105 3 15.9036 3 17.0053C3 18.1071 3.88499 19.0002 4.97669 19.0002C6.06839 19.0002 6.95338 18.1071 6.95338 17.0053Z" fill="white"/>
<path d="M19.3439 7.70733C20.2102 7.73175 20.9321 7.04355 20.9562 6.17021C20.9804 5.29686 20.2977 4.56907 19.4315 4.54465L10.187 4.28406C9.32068 4.25964 8.59883 4.94783 8.57465 5.82118C8.55048 6.69453 9.23315 7.42231 10.0994 7.44673L19.3439 7.70733Z" fill="white"/>
<path d="M19.3432 13.2144C20.2095 13.2388 20.9313 12.5506 20.9555 11.6773C20.9797 10.8039 20.297 10.0762 19.4307 10.0517L10.1862 9.79114C9.31995 9.76672 8.59809 10.4549 8.57392 11.3283C8.54975 12.2016 9.23241 12.9294 10.0987 12.9538L19.3432 13.2144Z" fill="white"/>
<path d="M19.3417 18.7186C20.208 18.743 20.9299 18.0548 20.954 17.1814C20.9782 16.3081 20.2955 15.5803 19.4293 15.5559L10.1848 15.2953C9.31849 15.2709 8.59663 15.9591 8.57246 16.8324C8.54828 17.7058 9.23095 18.4335 10.0972 18.458L19.3417 18.7186Z" fill="white"/>
</g>
<defs>
<filter id="filter0_d_10_264" x="3" y="4" width="19.9569" height="18.0002" filterUnits="userSpaceOnUse" color-interpolation-filters="sRGB">
<feFlood flood-opacity="0" result="BackgroundImageFix"/>
<feColorMatrix in="SourceAlpha" type="matrix" values="0 0 0 0 0 0 0 0 0 0 0 0 0 0 0 0 0 0 127 0" result="hardAlpha"/>
<feOffset dx="1" dy="2"/>
<feGaussianBlur stdDeviation="0.5"/>
<feComposite in2="hardAlpha" operator="out"/>
<feColorMatrix type="matrix" values="0 0 0 0 0 0 0 0 0 0 0 0 0 0 0 0 0 0 0.51 0"/>
<feBlend mode="normal" in2="BackgroundImageFix" result="effect1_dropShadow_10_264"/>
<feBlend mode="normal" in="SourceGraphic" in2="effect1_dropShadow_10_264" result="shape"/>
</filter>
</defs>
</svg>
