<svg width="24" height="24" viewBox="0 0 24 24" fill="none" xmlns="http://www.w3.org/2000/svg">
<g opacity="0.5">
<path d="M20.7166 8.51812C20.7166 7.63663 20.7166 6.77963 20.7166 5.89814C20.266 5.89814 19.83 5.89814 19.399 5.89814C19.399 6.76004 19.399 7.62684 19.399 8.51322C19.8349 8.51322 20.2611 8.51322 20.697 8.51322C20.697 9.09598 20.697 9.65426 20.697 10.2419C20.2709 10.2419 19.8496 10.2419 19.3941 10.2419C19.3941 10.7023 19.3941 11.1332 19.3941 11.5642C18.5369 11.5642 17.6796 11.5642 16.8028 11.5642C16.8028 11.4662 16.8028 11.3879 16.8028 11.3144C16.8028 10.0167 16.7979 8.7189 16.8077 7.42605C16.8077 7.23996 16.7539 7.19589 16.5775 7.20078C16.2199 7.21548 15.8673 7.20568 15.4901 7.20568C15.4901 6.32909 15.4901 5.47209 15.4901 4.61508C16.362 4.61508 17.2339 4.61019 18.1058 4.61019C18.1058 4.17924 18.1058 3.74339 18.1058 3.28306C17.2192 3.28306 16.3571 3.28306 15.4754 3.28306C15.4754 2.83741 15.4754 2.41626 15.4754 2C13.1487 2 10.8464 2 8.51971 2C8.51971 2.43095 8.51971 2.85211 8.51971 3.28795C7.64291 3.28795 6.7857 3.28795 5.90399 3.28795C5.90399 3.73849 5.90399 4.17434 5.90399 4.60529C6.7759 4.60529 7.64781 4.61019 8.51971 4.61019C8.51971 5.46719 8.51971 6.32419 8.51971 7.20078C8.14744 7.20078 7.78986 7.21058 7.43228 7.19589C7.25594 7.19099 7.20206 7.23506 7.20206 7.42116C7.21185 8.7189 7.20696 10.0167 7.20696 11.3095C7.20696 11.3879 7.20696 11.4613 7.20696 11.5593C6.32525 11.5593 5.47294 11.5593 4.61572 11.5593C4.61572 11.1283 4.61572 10.6974 4.61572 10.2419C4.16507 10.2419 3.74871 10.2419 3.31766 10.2419C3.31766 9.65916 3.31766 9.09598 3.31766 8.51322C3.74382 8.51322 4.16507 8.51322 4.61082 8.51322C4.61082 7.62684 4.61082 6.76004 4.61082 5.89324C4.17977 5.89324 3.74381 5.89324 3.28337 5.89324C3.28337 6.77963 3.28337 7.64153 3.28337 8.52302C2.83762 8.52302 2.41636 8.52302 2 8.52302C2 10.8492 2 13.1508 2 15.477C2.43106 15.477 2.85231 15.477 3.28827 15.477C3.28827 16.3536 3.28827 17.2106 3.28827 18.0921C3.73892 18.0921 4.17487 18.0921 4.60593 18.0921C4.60593 17.2302 4.60593 16.3634 4.60593 15.4819C4.17487 15.4819 3.75361 15.4819 3.31766 15.4819C3.31766 14.1694 3.31766 12.8815 3.31766 11.569C3.74382 11.569 4.17487 11.569 4.60593 11.569C4.60593 11.9951 4.60593 12.4212 4.60593 12.8717C5.47783 12.8717 6.33505 12.8717 7.20206 12.8717C7.20206 12.9745 7.20206 13.0529 7.20206 13.1312C7.20206 14.2772 7.20695 15.4231 7.19716 16.569C7.19716 16.7551 7.25594 16.7992 7.42738 16.7943C7.78496 16.7796 8.13764 16.7894 8.50992 16.7894C8.50992 17.6709 8.50992 18.523 8.50992 19.38C7.63801 19.38 6.7661 19.3849 5.8942 19.3849C5.8942 19.8159 5.8942 20.2517 5.8942 20.7071C6.7808 20.7071 7.63801 20.7071 8.51482 20.7071C8.51482 21.1577 8.51482 21.5788 8.51482 22C10.8366 22 13.1585 22 15.4754 22C15.4754 21.5739 15.4754 21.143 15.4754 20.6974C16.3571 20.6974 17.2143 20.6974 18.096 20.6974C18.096 20.2468 18.096 19.811 18.096 19.38C17.2241 19.38 16.3522 19.3751 15.4803 19.3751C15.4803 18.5132 15.4803 17.6562 15.4803 16.7845C15.8624 16.7845 16.215 16.7747 16.5628 16.7894C16.7392 16.7943 16.7979 16.7502 16.793 16.5642C16.7832 15.4133 16.7881 14.2576 16.7881 13.1068C16.7881 13.0333 16.7881 12.9549 16.7881 12.8521C17.6747 12.8521 18.5271 12.8521 19.3843 12.8521C19.3843 12.4065 19.3843 11.9853 19.3843 11.5642C19.8104 11.5642 20.2366 11.5642 20.6774 11.5642C20.6774 12.8668 20.6774 14.1548 20.6774 15.4672C20.2562 15.4672 19.8349 15.4672 19.3843 15.4672C19.3843 16.3536 19.3843 17.2204 19.3843 18.0921C19.8153 18.0921 20.2513 18.0921 20.7068 18.0921C20.7068 17.2057 20.7068 16.3487 20.7068 15.4721C21.1575 15.4721 21.5787 15.4721 22 15.4721C22 13.1508 22 10.8296 22 8.50833C21.5934 8.51812 21.1624 8.51812 20.7166 8.51812ZM15.4852 3.31734C15.4852 3.74339 15.4852 4.17434 15.4852 4.60529C15.059 4.60529 14.628 4.60529 14.2018 4.60529C14.2018 4.17924 14.2018 3.75808 14.2018 3.31734C14.628 3.31734 15.0443 3.31734 15.4852 3.31734ZM11.1354 3.31734C11.7183 3.31734 12.2817 3.31734 12.8646 3.31734C12.8646 3.73849 12.8646 4.15475 12.8646 4.61508C13.3201 4.61508 13.7561 4.61508 14.192 4.61508C14.1871 4.64447 14.1773 4.67385 14.1773 4.70323C14.1773 5.49167 14.1773 6.28012 14.1773 7.06856C14.1773 7.11263 14.1871 7.15671 14.1969 7.22527C14.628 7.22527 15.0492 7.22527 15.4705 7.22527C15.4705 9.12047 15.4705 10.9863 15.4705 12.8521C13.1487 12.8521 10.8415 12.8521 8.52951 12.8521C8.52951 10.9716 8.52951 9.10578 8.52951 7.22037C8.96057 7.22037 9.38183 7.22037 9.82758 7.22037C9.82758 6.97551 9.82758 6.75025 9.82758 6.52008C9.82268 5.88345 9.81778 5.25171 9.81288 4.61508C10.2439 4.61508 10.6799 4.61508 11.1305 4.61508C11.1354 4.16944 11.1354 3.75318 11.1354 3.31734ZM9.81288 3.31734C9.81288 3.74829 9.81288 4.17924 9.81288 4.60529C9.38673 4.60529 8.95567 4.60529 8.52951 4.60529C8.52951 4.17924 8.52951 3.75318 8.52951 3.31734C8.96057 3.31734 9.37693 3.31734 9.81288 3.31734ZM8.52951 20.6827C8.52951 20.2566 8.52951 19.8257 8.52951 19.3947C8.95567 19.3947 9.38673 19.3947 9.81288 19.3947C9.81288 19.8208 9.81288 20.2419 9.81288 20.6827C9.38673 20.6827 8.97036 20.6827 8.52951 20.6827ZM12.8793 20.6827C12.2963 20.6827 11.733 20.6827 11.1501 20.6827C11.1501 20.2615 11.1501 19.8452 11.1501 19.3849C10.6946 19.3849 10.2586 19.3849 9.82268 19.3849C9.82758 19.3555 9.83737 19.3262 9.83737 19.2968C9.83737 18.5083 9.83737 17.7199 9.83737 16.9314C9.83737 16.8874 9.82758 16.8433 9.81778 16.7747C9.38672 16.7747 8.96547 16.7747 8.54421 16.7747C8.54421 15.8981 8.54421 15.046 8.54421 14.1988C10.866 14.1988 13.1732 14.1988 15.4852 14.1988C15.4852 15.0607 15.4852 15.9128 15.4852 16.7845C15.0541 16.7845 14.6329 16.7845 14.1871 16.7845C14.1871 17.0294 14.1871 17.2547 14.1871 17.4848C14.192 18.1215 14.1969 18.7532 14.2018 19.3898C13.7708 19.3898 13.3348 19.3898 12.8842 19.3898C12.8793 19.8306 12.8793 20.2517 12.8793 20.6827ZM14.2018 20.6876C14.2018 20.2566 14.2018 19.8257 14.2018 19.3996C14.628 19.3996 15.059 19.3996 15.4852 19.3996C15.4852 19.8257 15.4852 20.2517 15.4852 20.6876C15.0541 20.6876 14.6378 20.6876 14.2018 20.6876Z" fill="white"/>
<path d="M19.3984 5.90351C19.4039 5.89805 19.4039 5.89805 19.3984 5.90351V5.90351Z" fill="white"/>
<path d="M5.90941 4.61054C5.90395 4.60508 5.90395 4.60508 5.90941 4.61054V4.61054Z" fill="white"/>
<path d="M4.61542 18.1025C4.60996 18.1025 4.60996 18.1025 4.61542 18.1025C4.61542 18.108 4.61542 18.108 4.61542 18.1025Z" fill="white"/>
<path d="M4.61542 5.89844C4.60996 5.89844 4.60996 5.89844 4.61542 5.89844C4.61542 5.9039 4.61542 5.9039 4.61542 5.89844Z" fill="white"/>
<path d="M5.90446 4.61035C5.47831 4.61035 5.05215 4.61035 4.62109 4.61035C4.62109 5.0462 4.62109 5.47225 4.62109 5.8983C5.04725 5.8983 5.46851 5.8983 5.90446 5.8983C5.90446 5.46246 5.90446 5.0364 5.90446 4.61035Z" fill="white"/>
<path d="M19.3996 5.8983C19.3996 5.47225 19.3996 5.0462 19.3996 4.61035C18.9636 4.61035 18.5375 4.61035 18.1162 4.61035C18.1162 5.0364 18.1162 5.45756 18.1162 5.8983C18.5473 5.8983 18.9734 5.8983 19.3996 5.8983Z" fill="white"/>
<path d="M18.1114 4.61054C18.1114 4.60508 18.1114 4.60508 18.1114 4.61054C18.106 4.61054 18.106 4.61054 18.1114 4.61054Z" fill="white"/>
<path d="M5.90335 19.3896C5.90335 19.3951 5.90335 19.3951 5.90335 19.3896C5.90881 19.3896 5.90881 19.3951 5.90335 19.3896Z" fill="white"/>
<path d="M4.61523 18.1064C4.61523 18.5325 4.61523 18.9586 4.61523 19.3944C5.05119 19.3944 5.47734 19.3944 5.8986 19.3944C5.8986 18.9683 5.8986 18.5472 5.8986 18.1064C5.46755 18.1064 5.04139 18.1064 4.61523 18.1064Z" fill="white"/>
<path d="M19.3984 18.1065C19.4011 18.1065 19.4033 18.1043 19.4033 18.1016C19.4033 18.0989 19.4011 18.0967 19.3984 18.0967C19.3957 18.0967 19.3936 18.0989 19.3936 18.1016C19.3936 18.1043 19.3957 18.1065 19.3984 18.1065Z" fill="white"/>
<path d="M18.1054 19.3896C18.1108 19.3951 18.1108 19.3951 18.1054 19.3896C18.1108 19.3896 18.1108 19.3951 18.1054 19.3896C18.1108 19.3896 18.1108 19.3896 18.1054 19.3896Z" fill="white"/>
<path d="M18.1103 19.3905C18.5364 19.3905 18.9626 19.3905 19.3937 19.3905C19.3937 18.9546 19.3937 18.5286 19.3937 18.1025C18.9675 18.1025 18.5462 18.1025 18.1103 18.1025C18.1103 18.5433 18.1103 18.9644 18.1103 19.3905Z" fill="white"/>
</g>
</svg>
