<svg width="24" height="24" viewBox="0 0 24 24" fill="none" xmlns="http://www.w3.org/2000/svg">
<path d="M16.4331 9.26124C16.4331 7.42549 16.4331 5.61947 16.4331 3.80602C15.8217 3.80602 15.2393 3.80602 14.6642 3.80602V3.79859H14.657C14.657 3.20401 14.657 2.60201 14.657 2C12.859 2 11.0974 2 9.3212 2C9.3212 2.61687 9.3212 3.20401 9.3212 3.79859H9.31392V3.80602C8.73157 3.80602 8.14195 3.80602 7.5232 3.80602C7.5232 5.64177 7.5232 7.44779 7.5232 9.28354C6.32211 9.28354 5.15742 9.28354 4 9.28354C4 9.90784 4 10.495 4 11.1044C4.58963 11.1044 5.15742 11.1044 5.76888 11.1044C5.76888 11.7139 5.76888 12.301 5.76888 12.9179C6.37307 12.9179 6.94086 12.9179 7.53776 12.9179C7.53776 13.5273 7.53776 14.1145 7.53776 14.7239C8.14923 14.7239 8.73157 14.7239 9.3212 14.7239V14.7313H9.32848C9.32848 15.3333 9.32848 15.9279 9.32848 16.5596C9.93267 16.5596 10.5077 16.5596 11.1119 16.5596C11.1119 17.1765 11.1119 17.7562 11.1119 18.3359C11.7161 18.3359 12.2912 18.3359 12.9026 18.3359C12.9026 17.7339 12.9026 17.1542 12.9026 16.5448C13.4995 16.5448 14.0673 16.5448 14.6715 16.5448C14.6715 15.9205 14.6715 15.3259 14.6715 14.7239H14.6788V14.7165C15.2611 14.7165 15.8508 14.7165 16.4695 14.7165C16.4695 14.0996 16.4695 13.5124 16.4695 12.8956C17.0737 12.8956 17.6415 12.8956 18.2311 12.8956C18.2311 12.2787 18.2311 11.699 18.2311 11.0896C18.8353 11.0896 19.4104 11.0896 20 11.0896C20 10.4653 20 9.87811 20 9.26124C18.7989 9.26124 17.6342 9.26124 16.4331 9.26124Z" fill="#FFFF00"/>
<path d="M5.78412 21.9998C9.92607 21.9998 14.0535 21.9998 18.1954 21.9998C18.1954 21.3978 18.1954 20.8106 18.1954 20.2012C14.0389 20.2012 9.91151 20.2012 5.78412 20.2012C5.78412 20.8106 5.78412 21.3978 5.78412 21.9998Z" fill="#FFFF00"/>
</svg>
