<svg width="24" height="24" viewBox="0 0 24 24" fill="none" xmlns="http://www.w3.org/2000/svg">
<g opacity="0.5">
<path d="M19.3868 9.81449C19.8175 9.81449 20.2432 9.81449 20.7032 9.81449C20.7032 10.2549 20.7032 10.6806 20.7032 11.126C21.1485 11.126 21.5694 11.126 22 11.126C22 14.757 22 18.3684 22 21.9897C19.2498 21.9897 16.5045 21.9897 13.7446 21.9897C13.7446 19.2493 13.7446 16.5138 13.7446 13.7636C12.5897 13.7636 11.4446 13.7636 10.2799 13.7636C10.2799 16.4991 10.2799 19.2346 10.2799 21.9995C7.50526 21.9995 4.75508 21.9995 2 21.9995C2 18.3782 2 14.757 2 11.1358C2.42574 11.1358 2.85148 11.1358 3.30169 11.1358C3.30169 10.6806 3.30169 10.2549 3.30169 9.7998C3.75679 9.7998 4.19232 9.7998 4.62295 9.7998C4.62295 10.2402 4.62295 10.6806 4.62295 11.1406C4.16296 11.1406 3.747 11.1406 3.32616 11.1406C3.32616 14.3312 3.32616 17.4974 3.32616 20.6733C5.20528 20.6733 7.06973 20.6733 8.95865 20.6733C8.95865 17.9231 8.95865 15.1778 8.95865 12.4374C10.9993 12.4374 13.0154 12.4374 15.0511 12.4374C15.0511 15.1876 15.0511 17.9231 15.0511 20.6684C16.9401 20.6684 18.8094 20.6684 20.6836 20.6684C20.6836 17.4827 20.6836 14.3166 20.6836 11.1309C20.253 11.1309 19.8322 11.1309 19.3917 11.1309C19.3868 10.6806 19.3868 10.2451 19.3868 9.81449Z" fill="white"/>
<path d="M9.80972 4.62296C9.80972 4.19232 9.80972 3.75679 9.80972 3.30169C10.2648 3.30169 10.6857 3.30169 11.1457 3.30169C11.1457 2.85149 11.1457 2.42574 11.1457 2C11.7182 2 12.2908 2 12.8633 2C12.8633 2.42085 12.8633 2.84169 12.8633 3.2919C13.3135 3.2919 13.7393 3.2919 14.1895 3.2919C14.1895 3.7519 14.1895 4.18742 14.1895 4.61806L14.1944 4.61316C13.7539 4.61316 13.3184 4.61316 12.8584 4.61316C12.8584 4.15806 12.8584 3.74211 12.8584 3.32616C12.2761 3.32616 11.7133 3.32616 11.131 3.32616C11.131 3.76169 11.131 4.17764 11.131 4.61806C10.6759 4.62295 10.2404 4.62296 9.80972 4.62296Z" fill="white"/>
<path d="M15.4765 5.91016C15.9071 5.91016 16.3329 5.91016 16.788 5.91016C16.788 6.34079 16.788 6.76164 16.788 7.20695C17.2284 7.20695 17.6492 7.20695 18.0946 7.20695C18.0946 7.66205 18.0946 8.09758 18.0946 8.52821L18.0995 8.52332C17.6639 8.52332 17.2333 8.52332 16.7782 8.52332C16.7782 8.08779 16.7782 7.66695 16.7782 7.22653C16.3378 7.22653 15.9169 7.22653 15.4814 7.22653C15.4814 6.77142 15.4814 6.34079 15.4765 5.91016Z" fill="white"/>
<path d="M14.1904 4.62305C14.6113 4.62305 15.0321 4.62305 15.4774 4.62305C15.4774 5.04879 15.4774 5.47942 15.4774 5.91005L15.4823 5.90516C15.0517 5.90516 14.6162 5.90516 14.1904 5.90516C14.1953 5.45984 14.1953 5.039 14.1904 4.62305Z" fill="white"/>
<path d="M18.0945 8.52832C18.5203 8.52832 18.946 8.52832 19.3815 8.52832C19.3815 8.96874 19.3815 9.39448 19.3815 9.81533L19.3864 9.81044C18.9607 9.81044 18.5349 9.81044 18.0994 9.81044C18.0994 9.3798 18.0994 8.94917 18.0945 8.52832Z" fill="white"/>
<path d="M8.52829 5.90527C8.52829 6.3408 8.52829 6.77143 8.52829 7.22654C8.08786 7.22654 7.66702 7.22654 7.2266 7.22654C7.2266 7.66696 7.2266 8.0878 7.2266 8.52822C6.7715 8.52822 6.33597 8.52822 5.90533 8.52822C5.90533 8.09759 5.90533 7.67185 5.90533 7.21675C6.34086 7.21675 6.76171 7.21675 7.20702 7.21675C7.20702 6.77633 7.20702 6.35548 7.20702 5.90527C7.66212 5.90527 8.09276 5.90527 8.52829 5.90527Z" fill="white"/>
<path d="M9.81523 4.61816C9.81523 5.03901 9.81523 5.45986 9.81523 5.91496C9.38459 5.91496 8.95396 5.91496 8.51843 5.91496C8.51843 5.48922 8.51843 5.06348 8.51843 4.61816C8.96864 4.61816 9.38949 4.61816 9.81523 4.61816Z" fill="white"/>
<path d="M5.90989 8.52344C5.90989 8.94918 5.90989 9.37981 5.90989 9.82023C5.46947 9.82023 5.04373 9.82023 4.6131 9.82023C4.6131 9.39939 4.6131 8.97854 4.6131 8.52344C5.04863 8.52344 5.47926 8.52344 5.90989 8.52344Z" fill="white"/>
</g>
</svg>
