<svg width="24" height="24" viewBox="0 0 24 24" fill="none" xmlns="http://www.w3.org/2000/svg">
<g opacity="0.5">
<path d="M8.5166 4.62366C8.5166 4.18802 8.5166 3.75727 8.5166 3.30204C8.94743 3.30204 9.36847 3.30204 9.8042 3.30204C9.8042 2.85661 9.8042 2.42586 9.8042 2C12.5654 2 15.3266 2 18.0928 2C18.0928 2.42586 18.0928 2.85171 18.0928 3.30204C18.5334 3.30204 18.9495 3.30204 19.3803 3.30204C19.3803 3.75727 19.3803 4.18802 19.3803 4.62366L19.3852 4.61877C18.9593 4.61877 18.5285 4.61877 18.083 4.61877C18.083 4.17333 18.083 3.75237 18.083 3.32652C15.3217 3.32652 12.585 3.32652 9.82378 3.32652C9.82378 3.75727 9.82378 4.17823 9.82378 4.61877C9.37337 4.61877 8.94253 4.61877 8.5166 4.61877V4.62366Z" fill="white"/>
<path d="M22.0002 14.1926C21.5792 14.1926 21.1582 14.1926 20.7126 14.1926C20.7126 14.6136 20.7126 15.0345 20.7126 15.48C20.2524 15.48 19.8167 15.48 19.3761 15.48L19.381 15.4849C19.381 15.059 19.381 14.6282 19.381 14.1779C19.8216 14.1779 20.2427 14.1779 20.6686 14.1779C20.6686 11.4123 20.6686 8.67115 20.6686 5.90554C20.2329 5.90554 19.8118 5.90554 19.381 5.90554C19.381 5.4601 19.381 5.03914 19.381 4.61328L19.3761 4.61818C19.8118 4.61818 20.2524 4.61818 20.7126 4.61818C20.7126 5.06361 20.7126 5.47968 20.7126 5.90554C21.1582 5.90554 21.5792 5.90554 22.0002 5.90554C22.0002 8.67115 22.0002 11.4319 22.0002 14.1926Z" fill="white"/>
<path d="M5.89711 15.4848C5.89711 12.3032 5.89711 9.12147 5.89711 5.91531C6.33283 5.91531 6.75387 5.91531 7.19449 5.91531C7.19449 5.47477 7.19449 5.0587 7.19449 4.62306C7.6498 4.62306 8.08552 4.62306 8.51635 4.62306L8.51146 4.61816C8.51146 5.04402 8.51146 5.47477 8.51146 5.92021C8.07084 5.92021 7.6498 5.92021 7.21407 5.92021C7.21407 9.11657 7.21407 12.2885 7.21407 15.4799C6.76366 15.4799 6.32794 15.4799 5.89221 15.4799L5.89711 15.4848Z" fill="white"/>
<path d="M19.3804 15.4805C19.3804 15.9112 19.3804 16.3371 19.3804 16.7874C18.9593 16.7874 18.5383 16.7874 18.0977 16.7874C18.0977 17.2279 18.0977 17.6489 18.0977 18.0992C14.8909 18.0992 11.7038 18.0992 8.51172 18.0992L8.51661 18.1041C8.51661 17.6685 8.51661 17.2377 8.51661 16.7776C11.7136 16.7776 14.8909 16.7776 18.0928 16.7776C18.0928 16.3322 18.0928 15.9161 18.0928 15.4854C18.5383 15.4854 18.9593 15.4854 19.3853 15.4854L19.3804 15.4805Z" fill="white"/>
<path d="M8.51139 18.0992C8.51139 18.5202 8.51139 18.946 8.51139 19.3915C8.08546 19.3915 7.66442 19.3915 7.2189 19.3915C7.2189 19.8369 7.2189 20.2628 7.2189 20.7082C6.77339 20.7082 6.35235 20.7082 5.91173 20.7082C5.91173 21.1439 5.91173 21.5648 5.91173 22.0005C5.03049 22.0005 4.16884 22.0005 3.2827 22.0005C3.2827 21.5795 3.2827 21.1585 3.2827 20.7229C2.84697 20.7229 2.43083 20.7229 2 20.7229C2 19.8467 2 18.9852 2 18.1041C2.41614 18.1041 2.83718 18.1041 3.2729 18.1041C3.2729 17.6636 3.2729 17.2426 3.2729 16.7972C3.71842 16.7972 4.13946 16.7972 4.58987 16.7972C4.58987 16.3517 4.58987 15.9308 4.58987 15.4902C5.04028 15.4902 5.46621 15.4902 5.89215 15.4902L5.88725 15.4854C5.88725 15.9161 5.88725 16.3517 5.88725 16.807C5.45153 16.807 5.03049 16.807 4.58987 16.807C4.58987 17.2524 4.58987 17.6685 4.58987 18.109C4.14925 18.109 3.72822 18.109 3.30718 18.109C3.30718 18.9803 3.30718 19.8271 3.30718 20.6886C4.17373 20.6886 5.0256 20.6886 5.90194 20.6886C5.90194 20.253 5.90194 19.832 5.90194 19.3964C6.34256 19.3964 6.7636 19.3964 7.20422 19.3964C7.20422 18.9558 7.20422 18.5349 7.20422 18.1139C7.65463 18.1139 8.08546 18.1139 8.51139 18.1139V18.0992Z" fill="white"/>
<path d="M11.1361 5.91039C11.1361 5.48943 11.1361 5.06358 11.1361 4.62793C13.0112 4.62793 14.8863 4.62793 16.7858 4.62793C16.7858 5.05379 16.7858 5.47475 16.7858 5.91039C17.2265 5.91039 17.6475 5.91039 18.0881 5.91039C18.0881 6.35093 18.0881 6.7719 18.0881 7.21244C18.5287 7.21244 18.9498 7.21244 19.3806 7.21244C19.3806 9.10676 19.3806 10.9766 19.3806 12.8612C18.9449 12.8612 18.519 12.8612 18.093 12.8612L18.0979 12.866C18.093 12.7877 18.0881 12.7094 18.0881 12.6311C18.0881 10.913 18.0881 9.19487 18.0881 7.47676C18.0881 7.39844 18.0881 7.32502 18.0881 7.22223C17.6426 7.22223 17.2167 7.22223 16.7712 7.22223C16.7712 6.77679 16.7712 6.35583 16.7712 5.91529C16.6781 5.91529 16.5998 5.91529 16.5215 5.91529C14.9548 5.91529 13.3833 5.91529 11.8166 5.91529C11.5865 5.91529 11.3613 5.91039 11.1361 5.91039Z" fill="white"/>
<path d="M9.80429 12.8619C9.38325 12.8619 8.96221 12.8619 8.52649 12.8619C8.52649 10.9872 8.52649 9.10751 8.52649 7.21808C8.94753 7.21808 9.36367 7.21808 9.79939 7.21808C9.79939 6.78244 9.79939 6.36637 9.79939 5.91114C10.2596 5.91114 10.7002 5.91114 11.1359 5.91114L11.131 5.90625C11.131 6.3419 11.131 6.77265 11.131 7.22787C10.6855 7.22787 10.2645 7.22787 9.81898 7.22787C9.81898 7.33067 9.81898 7.41388 9.81898 7.49709C9.81898 9.20541 9.81898 10.9088 9.81898 12.6172C9.82387 12.7004 9.80918 12.7836 9.80429 12.8619Z" fill="white"/>
<path d="M18.0921 12.8613C18.0921 13.297 18.0921 13.7277 18.0921 14.183C17.6514 14.183 17.2353 14.183 16.7898 14.183C16.7898 14.6235 16.7898 15.0444 16.7898 15.4703C14.8951 15.4703 13.0249 15.4703 11.1351 15.4703C11.1351 15.0396 11.1351 14.6137 11.1351 14.1878L11.1302 14.1927C11.2135 14.1878 11.2967 14.1732 11.3799 14.1732C13.0886 14.1732 14.7923 14.1732 16.5009 14.1732C16.5842 14.1732 16.6674 14.1732 16.7751 14.1732C16.7751 13.7277 16.7751 13.3019 16.7751 12.8613C17.2353 12.8662 17.6661 12.8662 18.0921 12.8613Z" fill="white"/>
<path d="M11.1359 14.1927C10.7001 14.1927 10.2693 14.1927 9.80421 14.1927C9.80421 13.7326 9.80421 13.297 9.80421 12.8613L9.79932 12.8662C10.235 12.8662 10.6757 12.8662 11.131 12.8662C11.131 13.3312 11.131 13.762 11.1359 14.1927Z" fill="white"/>
</g>
</svg>
