<svg width="24" height="24" viewBox="0 0 24 24" fill="none" xmlns="http://www.w3.org/2000/svg">
<path d="M19.44 10.284C20.2917 10.284 21.1434 10.2889 21.9951 10.2889C21.9951 9.70135 21.9951 9.11383 21.9951 8.53121C21.5742 8.53121 21.1483 8.53121 20.7029 8.53121C20.7029 7.65973 20.7029 6.79804 20.7029 5.91677C20.2575 5.91677 19.8365 5.91677 19.3911 5.91677C19.3911 5.48103 19.3911 5.05998 19.3911 4.61934C18.9506 4.61934 18.5296 4.61934 18.0891 4.61934C18.0891 4.17381 18.0891 3.74786 18.0891 3.30233C17.208 3.30233 16.3514 3.30233 15.4704 3.30233C15.4704 2.85679 15.4704 2.43084 15.4704 2C14.5991 2 13.723 2 12.8517 2C12.8517 2.42105 12.8517 2.84211 12.8517 3.28274C12.279 3.28274 11.7161 3.28274 11.1336 3.28274C11.1336 2.85679 11.1336 2.42595 11.1336 2C10.2624 2 9.3862 2 8.51493 2C8.51493 2.42105 8.51493 2.847 8.51493 3.29253C7.64366 3.29253 6.78219 3.29253 5.90113 3.29253C5.90113 3.73807 5.90113 4.15912 5.90113 4.60465C5.46549 4.60465 5.04454 4.60465 4.60402 4.60465C4.60402 5.04529 4.60402 5.46634 4.60402 5.90698C4.15859 5.90698 3.73275 5.90698 3.28732 5.90698C3.28732 6.78825 3.28732 7.64504 3.28732 8.52142C2.8468 8.52142 2.43074 8.52142 2 8.52142C2 9.10893 2 9.68176 2 10.2742C2.86148 10.2742 3.71806 10.2742 4.60891 10.2742C4.60891 10.7246 4.60891 11.1506 4.60891 11.5765C5.47039 11.5765 6.33186 11.5765 7.21292 11.5765C7.21292 10.1224 7.21292 8.69278 7.21292 7.24847C7.64855 7.24847 8.0695 7.24847 8.51003 7.24847C8.51003 9.11383 8.51003 10.9841 8.51003 12.869C10.835 12.869 13.1356 12.869 15.4655 12.869C15.4655 10.9988 15.4655 9.12852 15.4655 7.24357C15.906 7.24357 16.327 7.24357 16.7675 7.24357C16.7675 8.68299 16.7675 10.1175 16.7675 11.5765C17.6534 11.5765 18.5149 11.5765 19.3764 11.5765C19.3764 11.1506 19.3764 10.7246 19.3764 10.3182C19.4156 10.2938 19.4302 10.284 19.44 10.284ZM9.78757 7.19951C9.37151 7.19951 8.95057 7.19951 8.51493 7.19951C8.51493 6.33782 8.51493 5.49572 8.51493 4.63403C8.93588 4.63403 9.35194 4.63403 9.78757 4.63403C9.78757 5.47613 9.78757 6.33293 9.78757 7.19951ZM11.1043 4.59486C10.6833 4.59486 10.2673 4.59486 9.82672 4.59486C9.82672 4.16891 9.82672 3.75765 9.82672 3.32681C10.2575 3.32681 10.6735 3.32681 11.1043 3.32681C11.1043 3.74786 11.1043 4.15912 11.1043 4.59486ZM14.1439 4.59976C13.723 4.59976 13.3069 4.59976 12.8762 4.59976C12.8762 4.1787 12.8762 3.76255 12.8762 3.32681C13.2922 3.32681 13.7132 3.32681 14.1439 3.32681C14.1439 3.75275 14.1439 4.16891 14.1439 4.59976ZM15.4557 7.20441C15.0299 7.20441 14.6187 7.20441 14.188 7.20441C14.188 6.34761 14.188 5.49572 14.188 4.62913C14.6089 4.62913 15.025 4.62913 15.4557 4.62913C15.4557 5.49572 15.4557 6.34272 15.4557 7.20441Z" fill="#FFFF00"/>
<path d="M4.60449 11.5811C4.60717 11.5811 4.60934 11.5789 4.60934 11.5762C4.60934 11.5735 4.60717 11.5713 4.60449 11.5713C4.60181 11.5713 4.59964 11.5735 4.59964 11.5762C4.59964 11.5789 4.60181 11.5811 4.60449 11.5811Z" fill="#FFFF00"/>
<path d="M19.3769 11.5813V11.5764H19.3721V11.5813H19.3769Z" fill="#FFFF00"/>
<path d="M16.7724 12.8638C16.7724 14.1759 16.7724 15.4685 16.7724 16.7708C16.327 16.7708 15.9109 16.7708 15.4704 16.7708C15.4704 15.914 15.4704 15.0572 15.4704 14.1906C13.1454 14.1906 10.8448 14.1906 8.51983 14.1906C8.51983 15.0425 8.51983 15.8993 8.51983 16.7708C8.0793 16.7708 7.65835 16.7708 7.21782 16.7708C7.21782 15.4783 7.21782 14.1857 7.21782 12.8785C6.33676 12.8785 5.48018 12.8785 4.60402 12.8785C4.60402 12.433 4.60402 12.007 4.60402 11.5811C3.74254 11.5811 2.87616 11.5811 2 11.5811C2 12.8785 2 14.171 2 15.4831C2.42095 15.4831 2.8419 15.4831 3.28243 15.4831C3.28243 16.3595 3.28243 17.2163 3.28243 18.0976C3.72785 18.0976 4.1537 18.0976 4.59422 18.0976C4.59422 18.5382 4.59422 18.9544 4.59422 19.395C5.03475 19.395 5.45571 19.395 5.90113 19.395C5.90113 19.8454 5.90113 20.2665 5.90113 20.7071C6.77729 20.7071 7.63387 20.7071 8.51003 20.7071C8.51003 21.1478 8.51003 21.5639 8.51003 21.9997C9.39109 21.9997 10.2526 21.9997 11.1287 21.9997C11.1287 21.5786 11.1287 21.1625 11.1287 20.7316C11.7063 20.7316 12.2692 20.7316 12.8517 20.7316C12.8517 21.1429 12.8517 21.5639 12.8517 21.9997C13.7279 21.9997 14.5844 21.9997 15.4655 21.9997C15.4655 21.5884 15.4655 21.1674 15.4655 20.7218C16.3465 20.7218 17.208 20.7218 18.0842 20.7218C18.0842 20.2763 18.0842 19.8552 18.0842 19.4097C18.5198 19.4097 18.9408 19.4097 19.3813 19.4097C19.3813 18.9691 19.3813 18.548 19.3813 18.1025C19.8267 18.1025 20.2526 18.1025 20.698 18.1025C20.698 17.2212 20.698 16.3644 20.698 15.4831C21.1434 15.4831 21.5742 15.4831 22 15.4831C22 14.1808 22 12.8785 22 11.5762C21.1287 11.5762 20.2575 11.5762 19.3813 11.5811C19.3813 12.0021 19.3813 12.4232 19.3813 12.8638C18.51 12.8638 17.6534 12.8638 16.7724 12.8638ZM9.79246 19.3852C9.37151 19.3852 8.95056 19.3852 8.51983 19.3852C8.51983 18.5333 8.51983 17.6765 8.51983 16.8148C8.94567 16.8148 9.36172 16.8148 9.79246 16.8148C9.79246 17.6716 9.79246 18.5235 9.79246 19.3852ZM11.0994 20.6876C10.6784 20.6876 10.2575 20.6876 9.82672 20.6876C9.82672 20.2616 9.82672 19.8406 9.82672 19.4146C10.2526 19.4146 10.6686 19.4146 11.0994 19.4146C11.0994 19.8357 11.0994 20.2567 11.0994 20.6876ZM14.1488 20.6925C13.723 20.6925 13.3069 20.6925 12.8762 20.6925C12.8762 20.2714 12.8762 19.8503 12.8762 19.4195C13.2971 19.4195 13.7181 19.4195 14.1488 19.4195C14.1488 19.8406 14.1488 20.2616 14.1488 20.6925ZM15.4557 19.3901C15.025 19.3901 14.6089 19.3901 14.1831 19.3901C14.1831 18.5284 14.1831 17.6765 14.1831 16.81C14.6089 16.81 15.0299 16.81 15.4557 16.81C15.4557 17.6716 15.4557 18.5235 15.4557 19.3901Z" fill="#FFFF00"/>
</svg>
