<svg width="24" height="24" viewBox="0 0 24 24" fill="none" xmlns="http://www.w3.org/2000/svg">
<path d="M22 22C19.681 22 17.3669 22 15.0479 22C15.0479 19.2534 15.0479 16.5067 15.0479 13.7601C13.0029 13.7601 10.9873 13.7601 8.95205 13.7601C8.95205 16.5165 8.95205 19.2583 8.95205 22C6.63797 22 4.32387 22 2 22C2 18.377 2 14.754 2 11.131C2.42564 11.131 2.85616 11.131 3.30137 11.131C3.30137 10.6707 3.30137 10.2497 3.30137 9.80416C3.74658 9.80416 4.16732 9.80416 4.61742 9.80416C4.61742 9.35863 4.61742 8.93758 4.61742 8.50184C5.06262 8.50184 5.48337 8.50184 5.91389 8.50184C5.91389 8.0612 5.91389 7.64015 5.91389 7.19461C6.34932 7.19461 6.77006 7.19461 7.21037 7.19461C7.21037 6.74908 7.21037 6.33293 7.21037 5.88739C7.66047 5.88739 8.08611 5.88739 8.53131 5.88739C8.53131 5.44676 8.53131 5.02571 8.53131 4.58996C8.96673 4.58996 9.37769 4.58996 9.818 4.58996C9.818 4.14933 9.818 3.72338 9.818 3.27784C10.2632 3.27784 10.684 3.27784 11.1292 3.27784C11.1292 2.83721 11.1292 2.42105 11.1292 2C11.7211 2 12.2886 2 12.8757 2C12.8757 2.43084 12.8757 2.847 12.8757 3.28764C13.316 3.28764 13.7417 3.28764 14.1869 3.28764C14.1869 3.73317 14.1869 4.15422 14.1869 4.59975C14.6272 4.59975 15.0431 4.59975 15.4834 4.59975C15.4834 5.04529 15.4834 5.46144 15.4834 5.89718C15.9237 5.89718 16.3444 5.89718 16.7945 5.89718C16.7945 6.33782 16.7945 6.76377 16.7945 7.2093C17.2446 7.2093 17.6654 7.2093 18.0959 7.2093C18.0959 7.65484 18.0959 8.07589 18.0959 8.51652C18.5313 8.51652 18.9521 8.51652 19.3924 8.51652C19.3924 8.95716 19.3924 9.37332 19.3924 9.81395C19.8376 9.81395 20.2583 9.81395 20.7035 9.81395C20.7035 10.2595 20.7035 10.6805 20.7035 11.131C21.1487 11.131 21.5695 11.131 21.9951 11.131C22 14.7687 22 18.3819 22 22Z" fill="#FFFF00"/>
</svg>
