<svg width="24" height="24" viewBox="0 0 24 24" fill="none" xmlns="http://www.w3.org/2000/svg">
<g opacity="0.5">
<path d="M9.32362 14.7241C8.73373 14.7241 8.15111 14.7241 7.53937 14.7241C7.53937 14.1147 7.53937 13.5276 7.53937 12.9181C6.94947 12.9181 6.38143 12.9181 5.76969 12.9181C5.76969 12.3012 5.76969 11.7141 5.76969 11.1047C5.16522 11.1047 4.59718 11.1047 4 11.1047C4 10.4952 4 9.90065 4 9.28378C5.15066 9.28378 6.32317 9.28378 7.52481 9.28378C7.52481 7.44803 7.52481 5.64201 7.52481 3.80626C8.15112 3.80626 8.73373 3.80626 9.32362 3.80626L9.31634 3.79883C9.31634 6.22915 9.31634 8.65204 9.31634 11.1121C8.71188 11.1121 8.14383 11.1121 7.57578 11.1121C7.57578 11.7215 7.57578 12.3012 7.57578 12.9032C8.16568 12.9032 8.73373 12.9032 9.31634 12.9032C9.31634 13.535 9.31634 14.137 9.31634 14.7316L9.32362 14.7241Z" fill="white"/>
<path d="M14.669 3.80566C15.2516 3.80566 15.8342 3.80566 16.446 3.80566C16.446 5.62655 16.446 7.43257 16.446 9.26089C17.6476 9.26089 18.8128 9.26089 19.9999 9.26089C19.9999 9.87776 19.9999 10.4723 19.9999 11.0892C19.4173 11.0892 18.8347 11.0892 18.2302 11.0892C18.2302 11.6986 18.2302 12.2858 18.2302 12.8952C17.633 12.8952 17.065 12.8952 16.4678 12.8952C16.4678 13.5121 16.4678 14.0992 16.4678 14.7161C15.8415 14.7161 15.2589 14.7161 14.669 14.7161L14.6763 14.7235C14.6763 14.1141 14.6763 13.5047 14.6763 12.8729C15.288 12.8729 15.8561 12.8729 16.4168 12.8729C16.4168 12.2635 16.4168 11.6838 16.4168 11.0818C15.8269 11.0818 15.2589 11.0818 14.6763 11.0818C14.669 8.64401 14.669 6.22112 14.669 3.80566Z" fill="white"/>
<path d="M18.2086 20.2012C18.2086 20.8032 18.2086 21.3978 18.2086 21.9998C14.0648 21.9998 9.93552 21.9998 5.79169 21.9998C5.79169 21.3978 5.79169 20.8106 5.79169 20.2012C9.92095 20.2012 14.0502 20.2012 18.2086 20.2012Z" fill="white"/>
<path d="M9.32388 3.80602C9.32388 3.21144 9.32388 2.61687 9.32388 2C11.1008 2 12.8633 2 14.6621 2C14.6621 2.60201 14.6621 3.20401 14.6621 3.80602L14.6693 3.79859C14.4145 3.80602 14.1596 3.81345 13.912 3.81345C12.3826 3.80602 10.8532 3.79859 9.32388 3.80602Z" fill="white"/>
<path d="M14.6699 14.7246C14.6699 15.3266 14.6699 15.9286 14.6699 16.5529C14.0727 16.5529 13.5046 16.5529 12.9002 16.5529C12.9002 17.1549 12.9002 17.7421 12.9002 18.3441C12.2957 18.3441 11.7204 18.3441 11.1086 18.3441C11.1086 17.7644 11.1086 17.1847 11.1086 16.5678C10.5042 16.5678 9.92886 16.5678 9.3244 16.5678C9.3244 15.9286 9.3244 15.3266 9.3244 14.732L9.31712 14.7395C9.91429 14.7395 10.5042 14.7395 11.1232 14.7395C11.1232 15.3638 11.1232 15.9435 11.1232 16.5232C11.7131 16.5232 12.2812 16.5232 12.8783 16.5232C12.8783 15.9212 12.8783 15.3415 12.8783 14.7395C13.4901 14.7395 14.08 14.7395 14.6699 14.7395V14.7246Z" fill="white"/>
</g>
</svg>
