<svg width="24" height="24" viewBox="0 0 24 24" fill="none" xmlns="http://www.w3.org/2000/svg">
<path d="M15.2315 20.6037C15.1908 20.6954 15.0999 20.7546 14.9995 20.7546H8.99951C8.89916 20.7546 8.80824 20.6954 8.76757 20.6037C8.7269 20.512 8.7441 20.4049 8.81143 20.3306C8.81145 20.3305 8.81146 20.3305 8.81148 20.3305L8.81153 20.3304L8.81217 20.3297L8.81516 20.3264L8.82779 20.3122C8.83907 20.2995 8.85595 20.2802 8.87775 20.2549C8.92134 20.2044 8.98453 20.1297 9.06176 20.0346C9.21633 19.8442 9.42648 19.5727 9.64808 19.249C10.095 18.5961 10.573 17.7533 10.7518 16.946C10.8747 16.3912 10.7937 15.6568 10.6556 14.9957C10.4789 14.1497 11.0878 13.2471 11.9995 13.2471C12.9112 13.2471 13.5202 14.1497 13.3434 14.9957C13.2053 15.6568 13.1243 16.3912 13.2472 16.946C13.426 17.7533 13.904 18.5961 14.3509 19.249C14.5725 19.5727 14.7827 19.8442 14.9373 20.0346C15.0145 20.1297 15.0777 20.2044 15.1213 20.2549C15.1431 20.2802 15.16 20.2995 15.1712 20.3122L15.1839 20.3264L15.1869 20.3297L15.1875 20.3304L15.1875 20.3305C15.1876 20.3305 15.1876 20.3305 15.1876 20.3306M15.2315 20.6037L15.1876 20.3306M15.2315 20.6037C15.2721 20.512 15.2549 20.4049 15.1876 20.3306M15.2315 20.6037L15.1876 20.3306" fill="#F6B307" stroke="#5B3303" stroke-width="0.507446" stroke-linejoin="round"/>
<path fill-rule="evenodd" clip-rule="evenodd" d="M13.9992 20.4994H14.9995C14.9995 20.4994 13.3784 18.7099 12.9995 16.9994C12.8644 16.3893 12.9555 15.6104 13.0951 14.9423C13.2439 14.2303 12.727 13.4994 11.9995 13.4994C11.835 13.4994 11.6813 13.5368 11.5436 13.6029C11.91 13.7769 12.0948 14.1857 12.0948 14.9423C12.0948 15.8945 12.1141 17.2643 12.2492 17.8744C12.6281 19.5849 13.9992 20.4994 13.9992 20.4994Z" fill="#C18B00"/>
<path d="M10.5 19.4999C10.75 19.1249 11 18.6249 11.125 18.1249" stroke="#FFCB43" stroke-width="0.507446" stroke-linecap="round" stroke-linejoin="round"/>
<mask id="path-4-outside-1_10_159" maskUnits="userSpaceOnUse" x="15.4998" y="2.99927" width="8" height="8" fill="black">
<rect fill="white" x="15.4998" y="2.99927" width="8" height="8"/>
<path fill-rule="evenodd" clip-rule="evenodd" d="M19.2498 9.49927C20.7685 9.49927 21.9998 8.26805 21.9998 6.74927C21.9998 5.23048 20.7685 3.99927 19.2498 3.99927C17.731 3.99927 16.4998 5.23048 16.4998 6.74927C16.4998 8.26805 17.731 9.49927 19.2498 9.49927ZM19.2501 8.24965C20.0786 8.24965 20.7501 7.57807 20.7501 6.74965C20.7501 5.92122 20.0786 5.24965 19.2501 5.24965C18.4217 5.24965 17.7501 5.92122 17.7501 6.74965C17.7501 7.57807 18.4217 8.24965 19.2501 8.24965Z"/>
</mask>
<path fill-rule="evenodd" clip-rule="evenodd" d="M19.2498 9.49927C20.7685 9.49927 21.9998 8.26805 21.9998 6.74927C21.9998 5.23048 20.7685 3.99927 19.2498 3.99927C17.731 3.99927 16.4998 5.23048 16.4998 6.74927C16.4998 8.26805 17.731 9.49927 19.2498 9.49927ZM19.2501 8.24965C20.0786 8.24965 20.7501 7.57807 20.7501 6.74965C20.7501 5.92122 20.0786 5.24965 19.2501 5.24965C18.4217 5.24965 17.7501 5.92122 17.7501 6.74965C17.7501 7.57807 18.4217 8.24965 19.2501 8.24965Z" fill="#F6B307"/>
<path d="M21.4923 6.74927C21.4923 7.9878 20.4883 8.99182 19.2498 8.99182V10.0067C21.0488 10.0067 22.5072 8.54831 22.5072 6.74927H21.4923ZM19.2498 4.50671C20.4883 4.50671 21.4923 5.51074 21.4923 6.74927H22.5072C22.5072 4.95023 21.0488 3.49182 19.2498 3.49182V4.50671ZM17.0072 6.74927C17.0072 5.51074 18.0112 4.50671 19.2498 4.50671V3.49182C17.4507 3.49182 15.9923 4.95023 15.9923 6.74927H17.0072ZM19.2498 8.99182C18.0112 8.99182 17.0072 7.9878 17.0072 6.74927H15.9923C15.9923 8.54831 17.4507 10.0067 19.2498 10.0067V8.99182ZM20.2427 6.74965C20.2427 7.29782 19.7983 7.7422 19.2501 7.7422V8.75709C20.3588 8.75709 21.2576 7.85833 21.2576 6.74965H20.2427ZM19.2501 5.75709C19.7983 5.75709 20.2427 6.20147 20.2427 6.74965H21.2576C21.2576 5.64096 20.3588 4.7422 19.2501 4.7422V5.75709ZM18.2576 6.74965C18.2576 6.20147 18.702 5.75709 19.2501 5.75709V4.7422C18.1415 4.7422 17.2427 5.64096 17.2427 6.74965H18.2576ZM19.2501 7.7422C18.702 7.7422 18.2576 7.29782 18.2576 6.74965H17.2427C17.2427 7.85833 18.1415 8.75709 19.2501 8.75709V7.7422Z" fill="#5B3303" mask="url(#path-4-outside-1_10_159)"/>
<path fill-rule="evenodd" clip-rule="evenodd" d="M21.7504 6.25098C21.7504 7.76976 20.5192 9.00098 19.0004 9.00098C18.0231 9.00098 17.1649 8.49119 16.6771 7.72303C17.0698 8.76217 18.0738 9.50113 19.2504 9.50113C20.7692 9.50113 22.0004 8.26991 22.0004 6.75113C22.0004 6.20963 21.8439 5.70469 21.5737 5.27907C21.6879 5.58125 21.7504 5.90882 21.7504 6.25098ZM17.8067 7.15949C17.7701 7.02966 17.7504 6.89269 17.7504 6.75113C17.7504 5.9227 18.422 5.25113 19.2504 5.25113C19.7374 5.25113 20.1701 5.48313 20.4441 5.84261C20.2663 5.21265 19.6872 4.75098 19.0004 4.75098C18.1719 4.75098 17.5004 5.42255 17.5004 6.25098C17.5004 6.59249 17.6145 6.90735 17.8067 7.15949Z" fill="#D29700"/>
<mask id="path-7-outside-2_10_159" maskUnits="userSpaceOnUse" x="0.999146" y="2.99927" width="8" height="8" fill="black">
<rect fill="white" x="0.999146" y="2.99927" width="8" height="8"/>
<path fill-rule="evenodd" clip-rule="evenodd" d="M4.74915 9.49927C6.26793 9.49927 7.49915 8.26805 7.49915 6.74927C7.49915 5.23048 6.26793 3.99927 4.74915 3.99927C3.23036 3.99927 1.99915 5.23048 1.99915 6.74927C1.99915 8.26805 3.23036 9.49927 4.74915 9.49927ZM4.74952 8.24965C5.57795 8.24965 6.24952 7.57807 6.24952 6.74965C6.24952 5.92122 5.57795 5.24965 4.74952 5.24965C3.9211 5.24965 3.24952 5.92122 3.24952 6.74965C3.24952 7.57807 3.9211 8.24965 4.74952 8.24965Z"/>
</mask>
<path fill-rule="evenodd" clip-rule="evenodd" d="M4.74915 9.49927C6.26793 9.49927 7.49915 8.26805 7.49915 6.74927C7.49915 5.23048 6.26793 3.99927 4.74915 3.99927C3.23036 3.99927 1.99915 5.23048 1.99915 6.74927C1.99915 8.26805 3.23036 9.49927 4.74915 9.49927ZM4.74952 8.24965C5.57795 8.24965 6.24952 7.57807 6.24952 6.74965C6.24952 5.92122 5.57795 5.24965 4.74952 5.24965C3.9211 5.24965 3.24952 5.92122 3.24952 6.74965C3.24952 7.57807 3.9211 8.24965 4.74952 8.24965Z" fill="#F6B307"/>
<path d="M6.9917 6.74927C6.9917 7.9878 5.98767 8.99182 4.74915 8.99182V10.0067C6.54818 10.0067 8.00659 8.54831 8.00659 6.74927H6.9917ZM4.74915 4.50671C5.98767 4.50671 6.9917 5.51074 6.9917 6.74927H8.00659C8.00659 4.95023 6.54818 3.49182 4.74915 3.49182V4.50671ZM2.50659 6.74927C2.50659 5.51074 3.51062 4.50671 4.74915 4.50671V3.49182C2.95011 3.49182 1.4917 4.95023 1.4917 6.74927H2.50659ZM4.74915 8.99182C3.51062 8.99182 2.50659 7.9878 2.50659 6.74927H1.4917C1.4917 8.54831 2.95011 10.0067 4.74915 10.0067V8.99182ZM5.74208 6.74965C5.74208 7.29782 5.2977 7.7422 4.74952 7.7422V8.75709C5.85821 8.75709 6.75697 7.85833 6.75697 6.74965H5.74208ZM4.74952 5.75709C5.2977 5.75709 5.74208 6.20147 5.74208 6.74965H6.75697C6.75697 5.64096 5.85821 4.7422 4.74952 4.7422V5.75709ZM3.75697 6.74965C3.75697 6.20147 4.20135 5.75709 4.74952 5.75709V4.7422C3.64084 4.7422 2.74208 5.64096 2.74208 6.74965H3.75697ZM4.74952 7.7422C4.20135 7.7422 3.75697 7.29782 3.75697 6.74965H2.74208C2.74208 7.85833 3.64084 8.75709 4.74952 8.75709V7.7422Z" fill="#5B3303" mask="url(#path-7-outside-2_10_159)"/>
<path fill-rule="evenodd" clip-rule="evenodd" d="M6.81473 8.56712C6.33039 8.99316 5.69498 9.25154 4.99922 9.25154C3.48044 9.25154 2.24922 8.02032 2.24922 6.50154C2.24922 5.80579 2.5076 5.17038 2.93364 4.68604C2.3607 5.19001 1.99915 5.92859 1.99915 6.75162C1.99915 8.2704 3.23036 9.50162 4.74915 9.50162C5.57217 9.50162 6.31076 9.14006 6.81473 8.56712ZM3.82087 5.57327C4.07623 5.37183 4.39865 5.25162 4.74915 5.25162C5.57757 5.25162 6.24915 5.92319 6.24915 6.75162C6.24915 7.10211 6.12893 7.42453 5.92749 7.67989C6.2757 7.4052 6.49922 6.97947 6.49922 6.50154C6.49922 5.67311 5.82765 5.00154 4.99922 5.00154C4.52129 5.00154 4.09556 5.22506 3.82087 5.57327Z" fill="#D29700"/>
<path d="M7.02966 3.24725C5.76852 3.24725 4.74615 4.26961 4.74615 5.53076V8.50098C4.74615 12.5071 7.99376 15.7547 11.9999 15.7547C16.006 15.7547 19.2536 12.5071 19.2536 8.50098V5.53076C19.2536 4.26961 18.2312 3.24725 16.9701 3.24725H7.02966Z" fill="#FFCF23" stroke="#5B3303" stroke-width="0.507446" stroke-linecap="round" stroke-linejoin="round"/>
<path fill-rule="evenodd" clip-rule="evenodd" d="M10.249 15.2787C10.8083 15.4226 11.3946 15.4991 11.9988 15.4991C15.8648 15.4991 18.9988 12.3651 18.9988 8.49915V3.49915H15.4993V8.49915C15.4993 11.761 13.2683 14.5017 10.249 15.2787Z" fill="#FFC429"/>
<path d="M4.99988 3.50098V8.50098C4.99988 10.8648 6.17155 12.9549 7.9658 14.2224C8.84052 14.8403 10.5256 12.7511 10.503 11.6804C10.5009 11.579 10.4999 11.4774 10.4999 11.376V3.50098H4.99988Z" fill="#FFDB5B"/>
<path fill-rule="evenodd" clip-rule="evenodd" d="M8.38306 14.4938C9.43859 15.132 10.6763 15.4993 11.9998 15.4993C15.8658 15.4993 18.9998 12.3653 18.9998 8.49927V3.49927H17.9995V7.99912C17.9995 11.8651 14.8655 14.9991 10.9995 14.9991C10.0745 14.9991 9.19135 14.8197 8.38306 14.4938Z" fill="#F5B40C"/>
<path d="M18.9999 3.50098H4.99988V4.50098H18.9999V3.50098Z" fill="#D29803"/>
<path d="M5.99854 4.74988C5.99854 8.12488 5.99854 10.3749 7.2485 11.6249" stroke="#FFEBA6" stroke-width="1.01489" stroke-linecap="round" stroke-linejoin="round"/>
<path d="M6 5.25C6 6.06502 5.9824 6.06443 6 6.75" stroke="white" stroke-width="0.507446" stroke-linecap="round" stroke-linejoin="round"/>
<path d="M7.4989 20.2462C7.08263 20.2462 6.74518 20.5836 6.74518 20.9999C6.74518 21.4161 7.08263 21.7536 7.4989 21.7536H16.4989C16.9152 21.7536 17.2526 21.4161 17.2526 20.9999C17.2526 20.5836 16.9152 20.2462 16.4989 20.2462H7.4989Z" fill="#FFD84F" stroke="#5B3303" stroke-width="0.507446" stroke-linejoin="round"/>
<path d="M3.49927 2.24701C3.083 2.24701 2.74554 2.58446 2.74554 3.00073C2.74554 3.417 3.083 3.75446 3.49927 3.75446H20.4993C20.9155 3.75446 21.253 3.417 21.253 3.00073C21.253 2.58446 20.9155 2.24701 20.4993 2.24701H3.49927Z" fill="#FFD84F" stroke="#5B3303" stroke-width="0.507446" stroke-linejoin="round"/>
<path d="M3.74951 2.875H16.4995" stroke="#FFEBA6" stroke-width="0.507446" stroke-linecap="round" stroke-linejoin="round"/>
<path d="M7.49902 20.7499H14.749" stroke="#FFEBA6" stroke-width="0.507446" stroke-linecap="round" stroke-linejoin="round"/>
<path d="M5.25 2.875H6.75" stroke="white" stroke-width="0.507446" stroke-linecap="round" stroke-linejoin="round"/>
<circle cx="14.1263" cy="13.626" r="0.375" fill="#E6A809"/>
<circle cx="15.5001" cy="12.7507" r="0.25" fill="#E6A809"/>
<circle cx="13.5011" cy="14.5013" r="0.25" fill="#E6A809"/>
<circle cx="12.7509" cy="13.7511" r="0.25" fill="#E6A809"/>
<circle cx="11.7506" cy="14.5013" r="0.25" fill="#E6A809"/>
<circle cx="17.7509" cy="11.0018" r="0.25" fill="#E6A809"/>
<circle cx="15.5001" cy="11.7521" r="0.25" fill="#E6A809"/>
<circle cx="18.0009" cy="9.75146" r="0.25" fill="#E6A809"/>
<circle cx="14.2513" cy="12.2522" r="0.25" fill="#E6A809"/>
<circle cx="15.2501" cy="13.7511" r="0.25" fill="#E6A809"/>
<circle cx="16.7505" cy="12.7507" r="0.25" fill="#E6A809"/>
<circle cx="16.2504" cy="11.7521" r="0.25" fill="#E6A809"/>
<circle cx="17.3757" cy="11.6271" r="0.125" fill="#E6A809"/>
<circle cx="17.1257" cy="10.6267" r="0.125" fill="#E6A809"/>
<circle cx="16.3755" cy="10.8768" r="0.125" fill="#E6A809"/>
<circle cx="17.1257" cy="9.87659" r="0.125" fill="#E6A809"/>
<circle cx="15.6252" cy="10.8768" r="0.125" fill="#E6A809"/>
<circle cx="11.6256" cy="13.6261" r="0.125" fill="#E6A809"/>
<circle cx="16.8756" cy="11.8772" r="0.125" fill="#E6A809"/>
<circle cx="16.1254" cy="13.376" r="0.125" fill="#E6A809"/>
<circle cx="14.875" cy="12.8759" r="0.125" fill="#E6A809"/>
<circle cx="13.6262" cy="12.8759" r="0.125" fill="#E6A809"/>
<circle cx="12.6259" cy="14.6263" r="0.125" fill="#E6A809"/>
<path d="M3.87419 4.62561C3.37415 4.87561 2.49915 5.50061 2.49915 7.00061" stroke="#FFD953" stroke-width="0.507446" stroke-linecap="round" stroke-linejoin="round"/>
<path d="M9.44924 8.1517C9.35794 8.1702 9.28412 8.23725 9.25695 8.32635C9.22977 8.41545 9.25361 8.51228 9.31904 8.57858L10.4747 9.74966L10.1882 11.2012C10.1694 11.2964 10.2066 11.394 10.2839 11.4526C10.3613 11.5112 10.4653 11.5206 10.5518 11.4767L11.9996 10.7431L13.4475 11.4767C13.534 11.5206 13.638 11.5112 13.7153 11.4526C13.7927 11.394 13.8298 11.2964 13.8111 11.2012L13.5246 9.74966L14.6802 8.57858C14.7457 8.51228 14.7695 8.41545 14.7423 8.32635C14.7151 8.23725 14.6413 8.1702 14.55 8.1517L13.098 7.85742L12.218 6.3711C12.1723 6.29395 12.0893 6.24664 11.9996 6.24664C11.91 6.24664 11.827 6.29395 11.7813 6.3711L11.3126 7.16276L10.9012 7.85742L9.44924 8.1517Z" fill="#FFEBA6" stroke="#F5B40C" stroke-width="0.507446" stroke-linecap="round" stroke-linejoin="round"/>
<path d="M10.3741 8.62561L11.4991 8.50061L11.9991 7.50061" stroke="white" stroke-width="0.507446" stroke-linecap="round" stroke-linejoin="round"/>
</svg>
