<svg width="24" height="24" viewBox="0 0 24 24" fill="none" xmlns="http://www.w3.org/2000/svg">
<path d="M8.51666 4.62366C8.51666 4.18802 8.51666 3.75727 8.51666 3.30204C8.94749 3.30204 9.36853 3.30204 9.80426 3.30204C9.80426 2.85661 9.80426 2.42586 9.80426 2C12.5655 2 15.3267 2 18.0928 2C18.0928 2.42586 18.0928 2.85171 18.0928 3.30204C18.5334 3.30204 18.9496 3.30204 19.3804 3.30204C19.3804 3.75727 19.3804 4.18802 19.3804 4.62366L19.3853 4.61877C18.9594 4.61877 18.5285 4.61877 18.083 4.61877C18.083 4.17333 18.083 3.75237 18.083 3.32652C15.3218 3.32652 12.5851 3.32652 9.82384 3.32652C9.82384 3.75727 9.82384 4.17823 9.82384 4.61877C9.37343 4.61877 8.9426 4.61877 8.51666 4.61877V4.62366Z" fill="#FFFF00"/>
<path d="M22.0003 14.1926C21.5792 14.1926 21.1582 14.1926 20.7127 14.1926C20.7127 14.6136 20.7127 15.0345 20.7127 15.48C20.2525 15.48 19.8167 15.48 19.3761 15.48L19.381 15.4849C19.381 15.059 19.381 14.6282 19.381 14.1779C19.8216 14.1779 20.2427 14.1779 20.6686 14.1779C20.6686 11.4123 20.6686 8.67115 20.6686 5.90554C20.2329 5.90554 19.8119 5.90554 19.381 5.90554C19.381 5.4601 19.381 5.03914 19.381 4.61328L19.3761 4.61818C19.8119 4.61818 20.2525 4.61818 20.7127 4.61818C20.7127 5.06361 20.7127 5.47968 20.7127 5.90554C21.1582 5.90554 21.5792 5.90554 22.0003 5.90554C22.0003 8.67115 22.0003 11.4319 22.0003 14.1926Z" fill="#FFFF00"/>
<path d="M5.89714 15.4848C5.89714 12.3032 5.89714 9.12147 5.89714 5.91531C6.33286 5.91531 6.7539 5.91531 7.19452 5.91531C7.19452 5.47477 7.19452 5.0587 7.19452 4.62306C7.64983 4.62306 8.08555 4.62306 8.51638 4.62306L8.51149 4.61816C8.51149 5.04402 8.51149 5.47477 8.51149 5.92021C8.07087 5.92021 7.64983 5.92021 7.2141 5.92021C7.2141 9.11657 7.2141 12.2885 7.2141 15.4799C6.76369 15.4799 6.32797 15.4799 5.89224 15.4799L5.89714 15.4848Z" fill="#FFFF00"/>
<path d="M19.3804 15.4805C19.3804 15.9112 19.3804 16.3371 19.3804 16.7874C18.9593 16.7874 18.5383 16.7874 18.0977 16.7874C18.0977 17.2279 18.0977 17.6489 18.0977 18.0992C14.8909 18.0992 11.7038 18.0992 8.51172 18.0992L8.51661 18.1041C8.51661 17.6685 8.51661 17.2377 8.51661 16.7776C11.7136 16.7776 14.8909 16.7776 18.0928 16.7776C18.0928 16.3322 18.0928 15.9161 18.0928 15.4854C18.5383 15.4854 18.9593 15.4854 19.3853 15.4854L19.3804 15.4805Z" fill="#FFFF00"/>
<path d="M8.51139 18.0992C8.51139 18.5202 8.51139 18.946 8.51139 19.3915C8.08546 19.3915 7.66442 19.3915 7.2189 19.3915C7.2189 19.8369 7.2189 20.2628 7.2189 20.7082C6.77339 20.7082 6.35235 20.7082 5.91173 20.7082C5.91173 21.1439 5.91173 21.5648 5.91173 22.0005C5.03049 22.0005 4.16884 22.0005 3.2827 22.0005C3.2827 21.5795 3.2827 21.1585 3.2827 20.7229C2.84697 20.7229 2.43083 20.7229 2 20.7229C2 19.8467 2 18.9852 2 18.1041C2.41614 18.1041 2.83718 18.1041 3.2729 18.1041C3.2729 17.6636 3.2729 17.2426 3.2729 16.7972C3.71842 16.7972 4.13946 16.7972 4.58987 16.7972C4.58987 16.3517 4.58987 15.9308 4.58987 15.4902C5.04028 15.4902 5.46621 15.4902 5.89215 15.4902L5.88725 15.4854C5.88725 15.9161 5.88725 16.3517 5.88725 16.807C5.45153 16.807 5.03049 16.807 4.58987 16.807C4.58987 17.2524 4.58987 17.6685 4.58987 18.109C4.14925 18.109 3.72822 18.109 3.30718 18.109C3.30718 18.9803 3.30718 19.8271 3.30718 20.6886C4.17373 20.6886 5.0256 20.6886 5.90194 20.6886C5.90194 20.253 5.90194 19.832 5.90194 19.3964C6.34256 19.3964 6.7636 19.3964 7.20422 19.3964C7.20422 18.9558 7.20422 18.5349 7.20422 18.1139C7.65463 18.1139 8.08546 18.1139 8.51139 18.1139V18.0992Z" fill="#FFFF00"/>
<path d="M11.1361 5.91039C11.1361 5.48943 11.1361 5.06358 11.1361 4.62793C13.0112 4.62793 14.8863 4.62793 16.7859 4.62793C16.7859 5.05379 16.7859 5.47475 16.7859 5.91039C17.2265 5.91039 17.6475 5.91039 18.0882 5.91039C18.0882 6.35093 18.0882 6.7719 18.0882 7.21244C18.5288 7.21244 18.9498 7.21244 19.3806 7.21244C19.3806 9.10676 19.3806 10.9766 19.3806 12.8612C18.9449 12.8612 18.519 12.8612 18.0931 12.8612L18.0979 12.866C18.0931 12.7877 18.0882 12.7094 18.0882 12.6311C18.0882 10.913 18.0882 9.19487 18.0882 7.47676C18.0882 7.39844 18.0882 7.32502 18.0882 7.22223C17.6426 7.22223 17.2167 7.22223 16.7712 7.22223C16.7712 6.77679 16.7712 6.35583 16.7712 5.91529C16.6782 5.91529 16.5998 5.91529 16.5215 5.91529C14.9549 5.91529 13.3833 5.91529 11.8167 5.91529C11.5866 5.91529 11.3613 5.91039 11.1361 5.91039Z" fill="#FFFF00"/>
<path d="M9.80432 12.8619C9.38328 12.8619 8.96224 12.8619 8.52652 12.8619C8.52652 10.9872 8.52652 9.10751 8.52652 7.21808C8.94756 7.21808 9.3637 7.21808 9.79942 7.21808C9.79942 6.78244 9.79942 6.36637 9.79942 5.91114C10.2596 5.91114 10.7002 5.91114 11.136 5.91114L11.1311 5.90625C11.1311 6.3419 11.1311 6.77265 11.1311 7.22787C10.6856 7.22787 10.2645 7.22787 9.81901 7.22787C9.81901 7.33067 9.81901 7.41388 9.81901 7.49709C9.81901 9.20541 9.81901 10.9088 9.81901 12.6172C9.8239 12.7004 9.80921 12.7836 9.80432 12.8619Z" fill="#FFFF00"/>
<path d="M18.092 12.8613C18.092 13.297 18.092 13.7277 18.092 14.183C17.6514 14.183 17.2353 14.183 16.7897 14.183C16.7897 14.6235 16.7897 15.0444 16.7897 15.4703C14.8951 15.4703 13.0249 15.4703 11.1351 15.4703C11.1351 15.0396 11.1351 14.6137 11.1351 14.1878L11.1302 14.1927C11.2134 14.1878 11.2967 14.1732 11.3799 14.1732C13.0885 14.1732 14.7923 14.1732 16.5009 14.1732C16.5841 14.1732 16.6674 14.1732 16.7751 14.1732C16.7751 13.7277 16.7751 13.3019 16.7751 12.8613C17.2353 12.8662 17.6661 12.8662 18.092 12.8613Z" fill="#FFFF00"/>
<path d="M11.1358 14.1927C10.7001 14.1927 10.2693 14.1927 9.80418 14.1927C9.80418 13.7326 9.80418 13.297 9.80418 12.8613L9.79929 12.8662C10.235 12.8662 10.6756 12.8662 11.1309 12.8662C11.1309 13.3312 11.1309 13.762 11.1358 14.1927Z" fill="#FFFF00"/>
</svg>
