<svg width="35" height="35" viewBox="0 0 35 35" fill="none" xmlns="http://www.w3.org/2000/svg">
<path d="M14.2751 10.2941C14.2322 10.6374 12.7959 22.1289 12.7531 22.4722L14.4118 25.7353L17.5 26.2699L18.5294 18.282L17.5 10.2941L15.8875 9.26465L14.2751 10.2941Z" fill="#E3F2FF"/>
<path d="M22.2469 22.4722C22.204 22.1289 20.7678 10.6374 20.7249 10.2941L19.1124 9.26465L17.5 10.2941V26.2699L20.5882 25.7353L22.2469 22.4722Z" fill="#CFE7FF"/>
<path d="M14.4117 4.11754V6.17636L15.9559 7.20578L17.5 6.17636L18.5293 5.14696L17.5 4.11754L15.9559 3.08813L14.4117 4.11754Z" fill="#FFD737"/>
<path d="M20.5882 4.11754L19.0442 3.08813L17.5 4.11754V6.17636L19.0442 7.20578L20.5882 6.17636C20.5882 5.45632 20.5882 4.83757 20.5882 4.11754Z" fill="#FFB048"/>
<path d="M11.3235 21.3289C10.7876 21.7574 7.6954 24.2312 7.19285 24.6332L7.20589 25.7354L5.54442 25.9522C4.03653 27.1585 0.879735 29.6839 0 30.3876V35H17.5L18.5294 30.635L17.5 26.27C16.753 25.6724 12.0755 21.9303 11.3235 21.3289Z" fill="#FFD737"/>
<path d="M35 30.3876C33.5345 29.2154 30.4664 26.761 29.6114 26.0771L27.7942 25.7354L27.9636 24.7589C27.4451 24.3439 24.1985 21.7464 23.6765 21.3289C23.1259 21.7693 19.6983 24.5114 19.1464 24.9529L19.5589 26.7647L17.5 26.27V35H35C35 33.7467 35 31.1205 35 30.3876Z" fill="#FFB048"/>
<path d="M25.7153 26.5567C26.1651 27.119 26.5517 27.6024 27.0014 28.1646C27.8703 27.4697 28.7425 26.772 29.6114 26.0771C29.0351 25.6159 28.5398 25.2197 27.9636 24.7588C27.2133 25.3587 26.4652 25.957 25.7153 26.5567Z" fill="#FF9059"/>
<path d="M22.4322 27.5814C21.2835 26.6625 20.2953 25.872 19.1464 24.9529C18.5706 25.4135 18.0757 25.8093 17.5 26.2699C18.4909 27.0634 20.5669 28.7255 21.1461 29.1893C21.5959 28.6268 21.9825 28.1437 22.4322 27.5814Z" fill="#FF9059"/>
<path d="M9.87687 26.7803C9.42683 27.3428 9.04018 27.8259 8.59012 28.3884C7.57457 27.576 6.55998 26.7644 5.54443 25.952C6.12097 25.4907 6.61633 25.0944 7.19286 24.6331C8.04555 25.3152 9.02419 26.0982 9.87687 26.7803Z" fill="#FFB048"/>
<path d="M14.4117 2.05871V4.11754H17.5L18.5293 3.08812L17.5 2.05871L15.9559 1.0293L14.4117 2.05871Z" fill="#424157"/>
<path d="M20.5882 2.05871L19.0442 1.0293L17.5 2.05871V4.11754H20.5882C20.5882 3.3975 20.5882 2.77875 20.5882 2.05871Z" fill="#2E2D3F"/>
<path d="M14.4117 6.17651V8.23534L15.9559 9.26474L17.5 8.23534L18.5293 7.20592L17.5 6.17651C16.4719 6.17651 15.4399 6.17651 14.4117 6.17651Z" fill="#424157"/>
<path d="M20.5882 6.17651C19.5601 6.17651 18.5281 6.17651 17.5 6.17651V8.23534L19.0442 9.26474L20.5882 8.23534C20.5882 7.5153 20.5882 6.89655 20.5882 6.17651Z" fill="#2E2D3F"/>
<path d="M12.3529 0V2.05882H17.5V0C16.114 0 13.1603 0 12.3529 0Z" fill="#55546B"/>
<path d="M22.6471 0C21.2613 0 18.3073 0 17.5 0V2.05882H22.6471C22.6471 1.33878 22.6471 0.720039 22.6471 0Z" fill="#424157"/>
<path d="M26.7646 10.2942H29.8529V8.23535H26.7646V10.2942Z" fill="#BADCFF"/>
<path d="M25.5089 3.98041C25.7844 4.64569 26.0211 5.21728 26.2968 5.88256L29.1498 4.70073L28.3619 2.79858L25.5089 3.98041Z" fill="#BADCFF"/>
<path d="M8.7033 5.88256L5.8501 4.70073L6.63795 2.79858L9.49113 3.98041C9.21559 4.64569 8.97883 5.21728 8.7033 5.88256Z" fill="#CFE7FF"/>
<path d="M5.14709 8.23535H8.23534V10.2942H5.14709V8.23535Z" fill="#CFE7FF"/>
<path d="M6.63805 15.731L5.85022 13.8288L8.7034 12.647C8.97894 13.3123 9.21571 13.8839 9.49125 14.5491L6.63805 15.731Z" fill="#CFE7FF"/>
<path d="M25.5089 14.5491L28.3619 15.731L29.1498 13.8288L26.2968 12.647C26.0211 13.3123 25.7844 13.8839 25.5089 14.5491Z" fill="#BADCFF"/>
<path d="M10.2941 8.23535V12.353H12.3529C12.3529 11.633 12.3529 11.0142 12.3529 10.2942H17.5L18.5293 9.26477L17.5 8.23535C15.5593 8.23535 11.4246 8.23535 10.2941 8.23535Z" fill="#55546B"/>
<path d="M22.6471 12.353H24.7058C24.7058 11.8548 24.7058 8.73681 24.7058 8.23535C22.7652 8.23535 18.6305 8.23535 17.5 8.23535V10.2942H22.6471V12.353Z" fill="#424157"/>
</svg>
