<svg width="35" height="35" viewBox="0 0 35 35" fill="none" xmlns="http://www.w3.org/2000/svg">
<path d="M15.535 22.3387L12.5849 19.3725L25.0146 5.97145L28.9082 5.91122L28.8633 9.84118L15.535 22.3387Z" fill="white"/>
<path d="M25.0138 5.97217L25.9273 8.90834L28.8625 9.8419L15.5343 22.3395L12.5841 19.3732L25.0138 5.97217Z" fill="#D1E5F2"/>
<path d="M25.9273 8.90834L14.0517 20.8488L12.5841 19.3732L25.0138 5.97217L25.9273 8.90834Z" fill="#B7CFE2"/>
<path d="M18.1263 24.9441L10.1593 16.9336L8.48204 18.62L16.449 26.6305L18.1263 24.9441Z" fill="#995341"/>
<path d="M13.4847 23.6197L11.463 21.5869L6.65587 26.4203L8.67756 28.453L13.4847 23.6197Z" fill="#995341"/>
<path d="M13.4847 23.6197L11.463 21.5869L8.408 24.6586L10.4297 26.6913L13.4847 23.6197Z" fill="#F7C903"/>
<path d="M13.4847 23.6197L11.463 21.5869L11.2084 21.8429L13.2301 23.8756L13.4847 23.6197Z" fill="#E88503"/>
<path d="M12.5394 24.5684L10.5177 22.5356L10.2631 22.7916L12.2848 24.8244L12.5394 24.5684Z" fill="#E88503"/>
<path d="M11.6117 25.501L9.58997 23.4683L9.33538 23.7242L11.3571 25.757L11.6117 25.501Z" fill="#E88503"/>
<path d="M10.6849 26.4351L8.66321 24.4023L8.40862 24.6583L10.4303 26.6911L10.6849 26.4351Z" fill="#E88503"/>
<path d="M5.96677 29.1592C6.73595 29.9326 7.98304 29.9326 8.75222 29.1592C9.5214 28.3859 9.5214 27.132 8.75222 26.3586C7.98304 25.5852 6.73595 25.5852 5.96677 26.3586C5.19759 27.132 5.19759 28.3859 5.96677 29.1592Z" fill="#995341"/>
<path d="M8.25803 28.6605C7.76384 29.1574 6.95516 29.1574 6.46096 28.6605C5.96677 28.1636 5.96677 27.3505 6.46096 26.8536C6.95516 26.3567 7.76384 26.3567 8.25803 26.8536C8.73725 27.3656 8.75222 28.1636 8.25803 28.6605Z" fill="#77463D"/>
<path d="M7.98847 28.3923C7.64403 28.7387 7.07496 28.7387 6.73053 28.3923C6.38609 28.046 6.38609 27.4738 6.73052 27.1275C7.07496 26.7812 7.64403 26.7812 7.98847 27.1275C8.33291 27.4738 8.33291 28.046 7.98847 28.3923Z" fill="#F7C903"/>
<path d="M8.37377 19.4716C9.37878 19.8902 10.531 19.4103 10.9472 18.3998C11.3635 17.3893 10.8863 16.2309 9.88126 15.8123C8.87625 15.3937 7.72406 15.8736 7.30778 16.8841C6.8915 17.8946 7.36876 19.0531 8.37377 19.4716Z" fill="#995341"/>
<path d="M10.0235 18.5453C9.52934 19.0422 8.72066 19.0422 8.22647 18.5453C7.73227 18.0484 7.73227 17.2353 8.22647 16.7384C8.72066 16.2415 9.52934 16.2415 10.0235 16.7384C10.5177 17.2353 10.5177 18.0484 10.0235 18.5453Z" fill="#77463D"/>
<path d="M9.75397 18.2734C9.40954 18.6198 8.84047 18.6198 8.49603 18.2734C8.15159 17.9271 8.15159 17.3549 8.49603 17.0086C8.84047 16.6623 9.40954 16.6623 9.75397 17.0086C10.0984 17.3549 10.0984 17.9271 9.75397 18.2734Z" fill="#F7C903"/>
<path d="M16.4757 27.6573C17.4677 28.1061 18.6337 27.6613 19.0801 26.6639C19.5265 25.6665 19.0841 24.4941 18.0921 24.0453C17.1001 23.5965 15.9341 24.0412 15.4877 25.0387C15.0413 26.0361 15.4837 27.2085 16.4757 27.6573Z" fill="#995341"/>
<path d="M18.1837 26.7523C17.6895 27.2492 16.8808 27.2492 16.3866 26.7523C15.8924 26.2554 15.8924 25.4423 16.3866 24.9454C16.8808 24.4485 17.6895 24.4485 18.1837 24.9454C18.6779 25.4423 18.6779 26.2554 18.1837 26.7523Z" fill="#77463D"/>
<path d="M17.9298 26.4951C17.5853 26.8414 17.0162 26.8414 16.6718 26.4951C16.3274 26.1488 16.3274 25.5766 16.6718 25.2303C17.0162 24.884 17.5853 24.884 17.9298 25.2303C18.2742 25.5766 18.2742 26.1488 17.9298 26.4951Z" fill="#F7C903"/>
<path d="M19.4621 22.339L22.4123 19.3727L9.98263 5.9717L6.08899 5.91147L6.13392 9.84142L19.4621 22.339Z" fill="white"/>
<path d="M9.9834 5.97046L9.06989 8.90663L6.13469 9.84019L19.4629 22.3378L22.4131 19.3715L9.9834 5.97046Z" fill="#D1E5F2"/>
<path d="M9.06989 8.90663L20.9455 20.8471L22.4131 19.3715L9.9834 5.97046L9.06989 8.90663Z" fill="#B7CFE2"/>
<path d="M16.8729 24.9424L24.8398 16.9319L26.5171 18.6183L18.5501 26.6288L16.8729 24.9424Z" fill="#995341"/>
<path d="M21.5164 23.6179L23.5381 21.5852L28.3452 26.4186L26.3235 28.4513L21.5164 23.6179Z" fill="#995341"/>
<path d="M21.5164 23.6179L23.5381 21.5852L26.5931 24.6569L24.5714 26.6896L21.5164 23.6179Z" fill="#F7C903"/>
<path d="M21.5164 23.6179L23.5381 21.5852L23.7927 21.8412L21.771 23.8739L21.5164 23.6179Z" fill="#E88503"/>
<path d="M22.4578 24.5667L24.4795 22.5339L24.7341 22.7899L22.7124 24.8226L22.4578 24.5667Z" fill="#E88503"/>
<path d="M23.3875 25.4993L25.4092 23.4666L25.6638 23.7225L23.6421 25.7553L23.3875 25.4993Z" fill="#E88503"/>
<path d="M24.3142 26.4336L26.3359 24.4009L26.5905 24.6569L24.5688 26.6896L24.3142 26.4336Z" fill="#E88503"/>
<path d="M29.0334 29.1575C28.2642 29.9309 27.0171 29.9309 26.2479 29.1575C25.4787 28.3842 25.4787 27.1303 26.2479 26.3569C27.0171 25.5835 28.2642 25.5835 29.0334 26.3569C29.8025 27.1303 29.8025 28.3842 29.0334 29.1575Z" fill="#995341"/>
<path d="M26.7421 28.659C27.2363 29.1559 28.045 29.1559 28.5392 28.659C29.0334 28.1622 29.0334 27.3491 28.5392 26.8522C28.045 26.3553 27.2363 26.3553 26.7421 26.8522C26.2629 27.3641 26.2479 28.1622 26.7421 28.659Z" fill="#77463D"/>
<path d="M27.0117 28.3909C27.3561 28.7372 27.9252 28.7372 28.2696 28.3909C28.614 28.0446 28.614 27.4724 28.2696 27.1261C27.9252 26.7797 27.3561 26.7797 27.0117 27.1261C26.6672 27.4724 26.6672 28.0446 27.0117 28.3909Z" fill="#F7C903"/>
<path d="M26.6273 19.4699C25.6223 19.8885 24.4701 19.4086 24.0538 18.3981C23.6376 17.3876 24.1148 16.2291 25.1198 15.8106C26.1249 15.392 27.277 15.8719 27.6933 16.8824C28.1096 17.8929 27.6323 19.0514 26.6273 19.4699Z" fill="#995341"/>
<path d="M24.9776 18.5436C25.4718 19.0405 26.2804 19.0405 26.7746 18.5436C27.2688 18.0467 27.2688 17.2336 26.7746 16.7367C26.2804 16.2398 25.4718 16.2398 24.9776 16.7367C24.4834 17.2336 24.4834 18.0467 24.9776 18.5436Z" fill="#77463D"/>
<path d="M25.2471 18.2717C25.5916 18.6181 26.1606 18.6181 26.5051 18.2717C26.8495 17.9254 26.8495 17.3532 26.5051 17.0069C26.1606 16.6606 25.5916 16.6606 25.2471 17.0069C24.9027 17.3532 24.9027 17.9254 25.2471 18.2717Z" fill="#F7C903"/>
<path d="M18.5234 27.6575C17.5314 28.1063 16.3654 27.6616 15.9191 26.6641C15.4727 25.6667 15.915 24.4943 16.907 24.0455C17.8991 23.5967 19.0651 24.0415 19.5114 25.0389C19.9578 26.0363 19.5155 27.2087 18.5234 27.6575Z" fill="#995341"/>
<path d="M16.8155 26.7526C17.3096 27.2494 18.1183 27.2494 18.6125 26.7526C19.1067 26.2557 19.1067 25.4426 18.6125 24.9457C18.1183 24.4488 17.3096 24.4488 16.8155 24.9457C16.3213 25.4426 16.3213 26.2557 16.8155 26.7526Z" fill="#77463D"/>
<path d="M17.0694 26.4954C17.4138 26.8417 17.9829 26.8417 18.3273 26.4954C18.6718 26.149 18.6718 25.5769 18.3273 25.2306C17.9829 24.8842 17.4138 24.8842 17.0694 25.2306C16.725 25.5769 16.725 26.149 17.0694 26.4954Z" fill="#F7C903"/>
</svg>
