<svg width="24" height="24" viewBox="0 0 24 24" fill="none" xmlns="http://www.w3.org/2000/svg">
<path d="M3.56219 12.9697L3.56351 12.971L11.1041 20.468C11.599 20.96 12.3983 20.96 12.8931 20.4678L20.2925 13.1085C21.3456 12.1193 22.0024 10.7316 22.0024 9.19408C22.0024 6.17758 19.4802 3.74591 16.3862 3.74591C15.5209 3.74591 14.7201 4.14533 14.0247 4.68356C13.3277 5.22309 12.7138 5.91982 12.2178 6.55543C12.1074 6.69694 11.8899 6.69694 11.7795 6.55543C11.2835 5.91982 10.6696 5.22309 9.97257 4.68356C9.27724 4.14533 8.47637 3.74591 7.61116 3.74591C4.51708 3.74591 1.99493 6.17758 1.99493 9.19408C1.99493 10.6609 2.59271 11.9915 3.56219 12.9697Z" fill="#E95252" stroke="#60050F" stroke-width="0.507446" stroke-linejoin="round"/>
<path fill-rule="evenodd" clip-rule="evenodd" d="M5.46985 14.5074L11.2826 20.2865C11.6785 20.6801 12.318 20.6801 12.7138 20.2864L12.7228 20.2774C12.5291 20.2577 12.3395 20.1823 12.1796 20.0502L5.46985 14.5074ZM20.0093 5.36336C19.055 4.51551 17.7828 3.99805 16.3858 3.99805C14.813 3.99805 13.3984 5.45291 12.4175 6.70993C12.2054 6.98162 11.7911 6.98162 11.5791 6.70993C10.9494 5.90303 10.141 5.01461 9.22683 4.48181C10.1667 5.15075 10.9914 6.15577 11.6206 6.96997C12.0103 7.47425 12.7369 7.47496 13.1416 6.98258C13.917 6.03887 14.88 5.05721 16.248 4.87297C17.4995 4.70441 18.8674 4.81097 20.0093 5.36336Z" fill="#D93F3F"/>
<path fill-rule="evenodd" clip-rule="evenodd" d="M2.30054 9.91582C2.55102 10.512 2.94784 11.0493 3.45433 11.4966L10.8325 17.9181C11.2145 18.2506 11.7832 18.2505 12.1652 17.9179L19.4083 11.6118C20.3892 10.8063 20.9989 9.67785 20.9989 8.4286C20.9989 6.08809 18.8586 4.17146 16.1471 4.00918C16.2265 4.00183 16.3063 3.99805 16.3865 3.99805C19.3481 3.99805 21.749 6.32368 21.749 9.19249C21.749 10.6571 21.1232 11.9802 20.1165 12.9245L12.7145 20.2864C12.3187 20.6801 11.6792 20.6801 11.2833 20.2865L3.7427 12.7895C2.98022 12.0202 2.45992 11.024 2.30054 9.91582ZM7.38504 4.00259C8.85851 4.08547 10.1786 5.28598 11.1012 6.3232C11.1847 6.41713 11.2937 6.47388 11.4079 6.49345C10.4371 5.29185 9.09462 3.99805 7.61146 3.99805C7.53561 3.99805 7.46013 3.99957 7.38504 4.00259Z" fill="#D93F3F"/>
<path fill-rule="evenodd" clip-rule="evenodd" d="M2.69409 11.268C2.92441 11.6344 3.20624 11.9718 3.53088 12.2724L11.3147 19.3739C11.7022 19.7274 12.2954 19.7274 12.6829 19.3737L20.3245 12.3994C20.7098 12.0677 21.0407 11.6865 21.3041 11.2671C21.0221 11.8936 20.6162 12.4557 20.1164 12.9245L12.7145 20.2864C12.3186 20.6801 11.6791 20.6801 11.2832 20.2865L3.74266 12.7895C3.30647 12.3494 2.94954 11.8351 2.69409 11.268ZM7.54561 3.99843C8.25143 4.00998 8.92555 4.28183 9.54414 4.68289C8.94452 4.27113 8.29281 3.99805 7.61142 3.99805C7.58945 3.99805 7.56752 3.99817 7.54561 3.99843ZM14.4562 4.68115C15.0741 4.28103 15.7473 4.00995 16.4521 3.99843C16.4303 3.99817 16.4084 3.99805 16.3864 3.99805C15.706 3.99805 15.0551 4.27036 14.4562 4.68115Z" fill="#AE2929"/>
<path d="M9.39646 5.54486C10.3498 6.85567 8.08197 6.62035 6.88698 8.17383C5.93569 9.41051 5.11391 11.6418 3.91655 10.2155C2.71919 8.78918 3.00638 6.57699 4.55801 5.27442C6.10964 3.97185 8.44047 4.23037 9.39646 5.54486Z" fill="#FF6D6D"/>
<path d="M8.82226 5.42707C9.17266 6.12785 7.84925 5.64041 6.8367 6.94544C5.78552 8.30026 4.38395 9.51499 3.70998 8.30026C3.17913 7.27459 3.88511 5.85499 5.28684 5.12949C6.68857 4.404 8.43685 4.65624 8.82226 5.42707Z" fill="#FF968F"/>
<path d="M18.6123 5.18822C19.1993 5.89266 18.0252 6.36228 17.086 7.77114C16.3204 8.91948 14.2447 10.2941 13.4464 8.94515C12.7857 7.82858 13.0819 5.93287 14.6598 4.9578C16.2378 3.98273 17.8974 4.33034 18.6123 5.18822Z" fill="#FF6D6D"/>
<path d="M18.0252 5.18873C18.4285 5.69292 17.5555 5.89316 16.7337 6.715C15.9119 7.53684 14.5305 8.20098 14.1159 7.39987C13.7012 6.59877 14.2526 5.48998 15.3475 4.92333C16.4423 4.35668 17.5555 4.6017 18.0252 5.18873Z" fill="#FF968F"/>
<ellipse cx="15.6407" cy="5.76055" rx="0.833405" ry="0.609819" transform="rotate(-27.3648 15.6407 5.76055)" fill="#FFD1CE"/>
<ellipse cx="5.41536" cy="6.08039" rx="0.848265" ry="0.620692" transform="rotate(-27.3648 5.41536 6.08039)" fill="#FFBFBB"/>
<path d="M5.45361 5.70813C5.28446 5.7927 4.84468 6.08871 4.43872 6.59616" stroke="#FFEAE9" stroke-width="0.507446" stroke-linecap="round" stroke-linejoin="round"/>
<circle cx="11.1614" cy="15.731" r="0.253723" fill="#FF6060"/>
<circle cx="10.1478" cy="16.2386" r="0.253723" fill="#FF6060"/>
<circle cx="10.4" cy="14.462" r="0.253723" fill="#FF6060"/>
<circle cx="13.4456" cy="14.9697" r="0.253723" fill="#FF6060"/>
<circle cx="13.9532" cy="15.4772" r="0.253723" fill="#FF6060"/>
<circle cx="12.1766" cy="14.462" r="0.253723" fill="#FF6060"/>
<circle cx="13.3188" cy="13.5738" r="0.126862" fill="#FF6060"/>
<circle cx="11.5421" cy="13.8275" r="0.126862" fill="#FF6060"/>
<circle cx="9.00577" cy="13.8275" r="0.126862" fill="#FF6060"/>
<circle cx="12.0497" cy="17.633" r="0.126862" fill="#FF6060"/>
<circle cx="12.8112" cy="17.3792" r="0.126862" fill="#FF6060"/>
<circle cx="12.5573" cy="15.0966" r="0.126862" fill="#FF6060"/>
<circle cx="11.2884" cy="14.8428" r="0.126862" fill="#FF6060"/>
<circle cx="8.24429" cy="14.589" r="0.126862" fill="#FF6060"/>
<circle cx="7.48294" cy="13.8275" r="0.126862" fill="#FF6060"/>
<circle cx="14.3339" cy="14.3351" r="0.126862" fill="#FF6060"/>
<circle cx="15.6013" cy="14.0813" r="0.126862" fill="#FF6060"/>
<circle cx="16.6165" cy="14.0813" r="0.126862" fill="#FF6060"/>
<circle cx="13.4456" cy="16.4908" r="0.253723" fill="#FF6060"/>
<circle cx="12.4303" cy="16.2385" r="0.507446" fill="#FF6060"/>
<circle cx="11.0344" cy="17.1252" r="0.380585" fill="#FF6060"/>
<circle cx="15.0953" cy="15.0965" r="0.380585" fill="#FF6060"/>
<circle cx="9.00571" cy="15.3503" r="0.380585" fill="#FF6060"/>
</svg>
